<svg width="206" height="60" viewBox="0 0 206 60" fill="none" xmlns="http://www.w3.org/2000/svg">
<path d="M38.6132 20.6842C39.252 19.0683 40.0412 17.5276 40.4545 15.8365C41.0934 13.2436 40.0036 10.9888 37.9743 10.1997C35.9826 9.41051 33.54 10.35 32.2999 12.6799C31.6235 13.9576 31.0598 15.4607 30.9471 16.9263C30.6089 20.4211 30.5713 23.9911 30.3834 27.7866C33.3145 26.5089 35.2686 24.1039 38.9138 24.4421C36.6966 25.8325 34.9304 27.1102 32.9763 28.1248C31.1725 29.0643 30.3834 30.2292 30.4961 32.3712C30.684 36.4298 30.6089 40.4883 30.4961 44.5844C30.3834 48.192 28.3917 50.7849 25.5357 51.6868C25.7612 45.5614 25.9866 39.3233 26.2121 33.1604C25.7988 33.0101 25.6484 32.8973 25.5733 32.9349C21.4772 35.4527 18.1326 38.6469 16.7422 43.3819C15.7652 46.7264 17.0804 51.0855 22.6045 49.8454C23.0931 49.7327 23.5816 49.62 24.1077 49.5072C22.3039 51.2734 18.2454 52.2129 15.6149 51.4613C13.1347 50.7473 11.7442 49.0187 11.1805 46.6137C10.6169 44.3589 11.4436 42.4424 12.6837 40.6386C14.9384 37.3317 18.0575 34.9266 21.5523 33.2731C25.1599 31.5445 26.5503 29.2522 26.0994 25.3064C25.7987 22.7886 26.0994 20.1581 26.4376 17.6403C27.114 13.1684 30.421 9.86146 34.705 9.10988C37.4482 8.62136 40.0787 9.7863 41.4692 12.1162C42.8596 14.3709 42.8972 18.0912 41.3188 19.9326C40.7552 20.609 39.6278 20.8345 38.7635 21.2479C38.7259 21.06 38.6507 20.8721 38.6132 20.6842Z" fill="white"/>
<path d="M95.207 39.2106C94.6433 42.3672 94.1172 45.5239 93.5535 48.7932C92.8395 48.7932 92.1631 48.7932 91.2612 48.7932C91.7498 45.4111 92.2007 42.0666 92.6516 38.7597C92.8395 37.3317 92.9899 35.9037 93.3281 34.5132C93.4784 33.9496 93.9669 33.2731 94.493 33.0852C95.3949 32.747 96.0713 33.1228 96.4471 34.2126C97.4993 37.1813 98.6643 40.1125 99.942 43.5698C101.182 40.338 102.272 37.5947 103.324 34.8139C104.076 32.8598 104.076 32.8598 106.481 33.2356C107.157 38.3087 107.834 43.457 108.51 48.7557C107.721 48.7557 107.044 48.7557 106.18 48.7557C105.692 45.599 105.241 42.4048 104.752 39.2482C104.639 39.2106 104.489 39.173 104.376 39.1354C102.911 42.2921 101.445 45.4487 99.9044 48.8308C98.4012 45.4487 96.9732 42.2921 95.5828 39.1354C95.4701 39.173 95.3573 39.2106 95.207 39.2106Z" fill="white"/>
<path d="M157.363 33.1228C158.34 33.1228 158.941 33.1228 159.617 33.1228C159.617 38.2335 159.617 43.3067 159.617 48.7556C155.784 44.7723 152.139 40.9768 148.193 36.8807C148.193 41.0895 148.193 44.885 148.193 48.7932C147.291 48.7932 146.653 48.7932 145.939 48.7932C145.939 43.4946 145.939 38.3463 145.939 32.5967C147.066 33.1979 147.93 33.5362 148.607 34.0998C151.688 36.7304 154.694 39.4736 157.4 41.8787C157.363 39.5864 157.363 36.4297 157.363 33.1228Z" fill="white"/>
<path d="M38.6132 48.6429C38.6132 43.5697 38.6132 38.4966 38.6132 33.4234C42.9723 32.2585 47.369 33.461 49.3983 36.317C51.2397 38.91 51.2773 42.8557 49.511 45.4863C47.4818 48.5302 43.2729 49.7703 38.6132 48.6429ZM41.0182 46.764C43.8742 46.8767 46.3168 46.4257 47.7073 43.9455C48.9098 41.8035 48.797 39.624 47.369 37.5947C45.8283 35.4151 43.536 35.1145 40.9806 35.34C41.0182 39.2106 41.0182 42.8933 41.0182 46.764Z" fill="white"/>
<path d="M89.9836 48.6429C88.255 49.3194 87.2403 48.8308 86.8645 47.2525C86.4136 45.4487 85.3238 44.6596 83.4449 44.9978C83.0691 45.0729 82.6933 45.0729 82.3175 44.9978C79.9876 44.5844 78.3717 45.2608 77.7329 47.7786C77.3571 49.3194 76.117 48.9436 74.8017 48.7557C76.9061 43.6825 78.8978 38.7221 81.0022 33.7993C81.1901 33.3859 82.092 33.0477 82.6557 33.0853C83.1818 33.1228 83.9334 33.5738 84.1213 34.0247C86.113 38.8724 87.9919 43.6825 89.9836 48.6429ZM82.5054 37.3693C81.6035 39.3609 80.8895 40.9768 80.1003 42.7055C81.7538 42.7055 83.1818 42.7055 84.8729 42.7055C84.0461 40.9393 83.3697 39.3609 82.5054 37.3693Z" fill="white"/>
<path d="M54.9224 42.5551C54.9224 44.9226 54.9224 46.764 54.9224 48.7556C54.0581 48.7556 53.3817 48.7556 52.5549 48.7556C52.5549 43.6073 52.5549 38.4966 52.5549 33.0101C54.5466 33.1604 56.4631 33.1604 58.3045 33.5362C59.958 33.8744 60.935 35.1896 61.1981 36.8807C61.4987 38.6845 60.9726 40.2252 59.507 41.3902C59.0561 41.7284 58.53 41.9539 57.8911 42.3296C59.3943 44.4341 60.8599 46.4633 62.4382 48.6805C60.7471 49.2442 59.4319 49.169 58.4172 47.5155C57.4778 45.8996 56.3128 44.4716 54.9224 42.5551ZM54.96 34.7387C54.96 37.1438 54.96 38.7221 54.96 41.0144C56.4631 40.2252 57.7408 39.8119 58.6427 38.9851C59.0561 38.6093 59.0561 37.031 58.6427 36.6552C57.7408 35.8285 56.4631 35.4527 54.96 34.7387Z" fill="white"/>
<path d="M162.323 33.1228C165.217 33.1228 167.96 33.1228 170.816 33.1228C170.853 33.7992 170.891 34.3629 170.929 35.1521C168.824 35.1521 166.832 35.1521 164.69 35.1521C164.69 36.5425 164.69 37.745 164.69 39.2106C166.607 39.2106 168.524 39.2106 170.515 39.2106C170.515 39.9997 170.515 40.5259 170.515 41.2774C168.599 41.2774 166.682 41.2774 164.653 41.2774C164.653 43.194 164.653 44.8474 164.653 46.764C166.682 46.764 168.711 46.764 170.816 46.764C170.816 47.5531 170.816 48.1168 170.816 48.7932C167.997 48.7932 165.217 48.7932 162.285 48.7932C162.323 43.6073 162.323 38.459 162.323 33.1228Z" fill="white"/>
<path d="M67.098 46.8391C69.2024 46.8391 71.1565 46.8391 73.2234 46.8391C73.2234 47.5907 73.2234 48.1168 73.2234 48.8308C70.405 48.8308 67.6241 48.8308 64.7681 48.8308C64.7681 43.6073 64.7681 38.4966 64.7681 33.2731C67.5865 33.2731 70.2922 33.2731 73.1858 33.2731C73.2234 33.8744 73.261 34.4381 73.2985 35.2272C71.1565 35.2272 69.2024 35.2272 67.0604 35.2272C67.0604 36.5801 67.0604 37.7074 67.0604 39.1354C68.977 39.1354 70.9311 39.1354 72.9979 39.1354C73.0731 39.9246 73.1106 40.4507 73.1858 41.2774C71.119 41.2774 69.1273 41.2774 67.0229 41.2774C67.098 43.194 67.098 44.8474 67.098 46.8391Z" fill="white"/>
<path d="M122.076 35.2648C122.076 36.4673 122.076 37.1813 122.076 37.9329C122.076 38.2335 122.114 38.5342 122.189 39.0603C123.88 39.0603 125.533 39.0603 127.299 39.0603C127.299 39.887 127.299 40.4507 127.299 41.2774C125.608 41.2774 123.955 41.2774 122.151 41.2774C122.151 43.8704 122.151 46.2379 122.151 48.7556C121.324 48.7556 120.61 48.7556 119.821 48.7556C119.821 43.5322 119.821 38.3839 119.821 33.1228C122.377 33.1228 124.857 33.1228 127.412 33.1228C127.412 33.7992 127.412 34.4005 127.412 35.2272C125.608 35.2648 123.917 35.2648 122.076 35.2648Z" fill="white"/>
<path d="M182.315 35.5655C181.714 35.9413 181.225 36.2043 180.962 36.3922C179.91 35.9413 179.046 35.2273 178.181 35.2648C177.43 35.3024 176.453 36.0164 176.114 36.6928C175.927 37.1062 176.641 38.2336 177.242 38.6845C178.069 39.3234 179.158 39.5488 180.098 40.0374C182.202 41.1272 182.916 42.5176 182.691 44.7723C182.503 46.6137 181.225 48.192 179.421 48.7181C177.355 49.3194 175.476 48.7557 174.085 46.9519C174.536 46.5761 175.025 46.2003 175.551 45.7494C176.002 46.05 176.378 46.3506 176.828 46.5385C178.144 47.1774 179.309 46.8392 180.098 45.6366C180.925 44.3589 180.699 43.0813 179.459 42.1794C178.82 41.7284 178.031 41.4278 177.279 41.0896C175.363 40.2628 173.634 39.2858 173.747 36.8056C173.822 35.0394 175.025 33.6865 176.979 33.1604C179.083 32.6719 180.737 33.3483 182.315 35.5655Z" fill="white"/>
<path d="M193.626 35.5654C193.063 35.9412 192.574 36.2419 192.349 36.3922C191.296 35.9412 190.394 35.2272 189.53 35.2648C188.779 35.3024 187.802 36.054 187.501 36.7304C187.313 37.1438 188.065 38.2336 188.628 38.6845C189.267 39.2106 190.207 39.3985 190.996 39.7743C192.912 40.6386 194.152 41.9914 194.077 44.2462C194.002 46.2754 192.875 48.0041 191.071 48.6053C188.929 49.2818 187.012 48.9811 185.321 47.027C185.847 46.6137 186.374 46.2003 186.9 45.8245C187.388 46.1251 187.764 46.4258 188.215 46.6137C189.568 47.2149 190.733 46.8767 191.447 45.6366C192.236 44.3213 192.01 43.0812 190.695 42.1793C189.981 41.6908 189.154 41.3902 188.328 41.052C185.885 39.9622 184.795 38.6093 185.021 36.8056C185.246 34.9266 186.374 33.7617 188.177 33.2731C190.47 32.6719 192.123 33.3107 193.626 35.5654Z" fill="white"/>
<path d="M140.527 35.9037C140.527 40.2628 140.527 44.4341 140.527 48.7933C139.738 48.7933 139.024 48.7933 138.122 48.7933C138.122 44.4717 138.122 40.2253 138.122 35.9037C137.183 35.7909 136.394 35.6782 135.492 35.5655C135.492 34.7763 135.492 34.0623 135.492 33.198C137.972 33.198 140.49 33.198 143.12 33.198C143.12 33.9872 143.12 34.7012 143.12 35.5655C142.293 35.6782 141.542 35.7534 140.527 35.9037Z" fill="white"/>
<path d="M132.523 48.8308C131.846 48.8308 131.245 48.8308 130.494 48.8308C130.494 43.6449 130.494 38.4966 130.494 33.198C131.132 33.198 131.771 33.198 132.523 33.198C132.523 38.3463 132.523 43.457 132.523 48.8308Z" fill="white"/>
</svg>
