<svg width="206" height="60" viewBox="0 0 206 60" fill="none" xmlns="http://www.w3.org/2000/svg">
<path d="M12.863 26.0244C12.9444 26.0784 12.863 26.0784 13.0206 26.1325L13.0744 26.1061C13.2609 26.1852 13.4185 26.2393 13.6077 26.3184L13.6563 26.292L13.7364 26.3447L13.7626 26.3197L13.8414 26.3737L13.9728 26.3447L14.1067 26.3988L14.133 26.3737L14.3418 26.4264H14.372L14.1067 26.2656H14.133L14.1067 26.2406H14.133L13.999 26.1602L14.0292 26.1351L13.9229 26.056H13.9478L13.9229 26.027H13.9478L13.8651 26.002L13.8953 25.9743L13.8125 25.9216H13.8388L13.8125 25.8939L13.7902 25.8662L13.7626 25.8398L13.7902 25.8135H13.7626V25.7871H13.7364L13.7626 25.7594L13.7364 25.7331H13.7626L13.6549 25.5999L13.6825 25.5735L13.6549 25.5208V25.4668L13.6063 25.414L13.6313 25.389L13.6063 25.3349L13.6313 25.2809L13.5525 25.1992L13.5735 25.1754H13.5525L13.5735 25.1253L13.5236 25.0963L13.5525 25.07L13.5236 25.0463L13.5525 24.9909H13.5236L13.5525 24.9645L13.5236 24.9368H13.5525L13.5236 24.8841L13.5735 24.8564V24.8301L13.5236 24.78L13.6063 24.6996L13.5 24.6468H13.5236L13.6063 24.5401L13.5735 24.4847L13.6063 24.4596L13.5735 24.432L13.5236 24.4082L13.5 24.3805L13.5525 24.3001L13.5 24.2474H13.5236L13.4698 24.1696L13.5 24.1156L13.4698 24.0853L13.5 24.0615H13.5236V24.0088H13.5525L13.5236 23.8229L13.6063 23.7966L13.5735 23.7689L13.5525 23.6898L13.6063 23.6371L13.5735 23.6081L13.6063 23.5843L13.5735 23.5553L13.5525 23.5052H13.5735L13.5525 23.4762L13.6063 23.4261L13.5735 23.3945L13.6063 23.3708L13.6313 23.3457H13.6063L13.6313 23.3181V23.2943L13.6549 23.2653H13.6825L13.6549 23.239V23.1862H13.6825V23.1322L13.7101 23.1058L13.7364 23.0267H13.7626V22.9766H13.7902V22.9213V22.8962L13.8677 22.8699V22.8448L13.9255 22.8184V22.7644H13.9504V22.7393H13.9741V22.713L14.0004 22.6853H13.9741L14.0831 22.6326V22.6036H14.1081V22.5772H14.1343L14.1081 22.5535L14.1869 22.5271L14.2118 22.5007H14.1869H14.2118V22.4717H14.2657H14.2394L14.2945 22.419H14.3431V22.394L14.397 22.3676H14.4246L14.5034 22.3426L14.5323 22.3162L14.6386 22.2859L14.9289 22.2094L15.0077 22.1817H15.0865H15.1141H15.139H15.1666L15.1929 22.1567V22.1817L15.2467 22.1567V22.1817L15.3216 22.1567H15.3807H15.407H15.428L15.5094 22.1817L15.6434 22.1567H15.667L15.7511 22.1817L15.7997 22.2094H15.8285H15.8535H15.931L15.9612 22.2358H15.9848H16.0098L16.0636 22.2608H16.0938L16.1188 22.2846L16.2252 22.3149H16.279L16.3828 22.3676H16.409L16.4616 22.4203L16.4905 22.3953L16.5141 22.4493H16.543L16.6455 22.5021V22.5284L16.6743 22.5548H16.6455L16.7531 22.5785L16.8845 22.6589L16.8635 22.713L16.8845 22.7393H16.9134L16.9685 22.7644L16.9895 22.7393L17.0434 22.8184H17.0171H16.9685L17.0434 22.8975L17.2049 22.9779V23.0043L17.2588 23.028H17.2286L17.2837 23.0821H17.3087L17.2837 23.1071H17.3087L17.2837 23.1612L17.3336 23.2152L17.2837 23.2403L17.3087 23.2666V23.2403L17.3625 23.2956L17.3862 23.2666L17.4151 23.3194L17.4413 23.3471L17.4663 23.3194L17.4939 23.3471L17.4676 23.3668L17.4151 23.3418V23.3919L17.4676 23.4235L17.4952 23.4472L17.5228 23.4749L17.4952 23.5039L17.6029 23.529V23.554H17.6305V23.6344H17.6554L17.6791 23.6595L17.6554 23.6872L17.7329 23.8203L17.6791 23.8743L17.6305 23.8994V23.9258L17.6029 23.9508H17.6305H17.6791H17.7093L17.7881 24.0062L17.813 24.138V24.192V24.2197L17.838 24.2448L17.7881 24.2698L17.813 24.3239H17.7881L17.813 24.3515L17.7881 24.3779L17.813 24.4056H17.7881L17.813 24.4293V24.5097L17.838 24.5387L17.813 24.5638L17.8669 24.6442L17.813 24.6692V24.6969H17.7881V24.7207L17.7605 24.776L17.7881 24.8261L17.7093 24.8802L17.7329 24.9329L17.6791 25.012L17.7093 25.066L17.6305 25.1214V25.1715H17.6029H17.6305L17.5228 25.2255L17.553 25.2506L17.444 25.3046V25.3323H17.4177L17.444 25.3587L17.2614 25.4628H17.2312L17.1537 25.5432L17.1301 25.5683H17.1537L17.0959 25.5946L17.0736 25.6513H17.0946L16.9396 25.7594L16.9134 25.7871V25.8135L16.8845 25.8398L16.9134 25.8662L16.8635 25.8939V25.9216L16.8346 25.9743V26.002L16.6743 26.1351V26.1602L16.6244 26.2129H16.6455L16.6244 26.2419H16.6743C16.7834 26.1878 16.8031 26.1615 16.9134 26.1615H16.9396L17.1787 26.0573L17.2063 26.0824C17.3639 26.0033 17.5228 25.8965 17.6554 25.7911L17.7093 25.8174L17.7618 25.7647L17.8143 25.7924L18.0284 25.6579C18.1597 25.6052 18.6352 25.4206 18.7665 25.2598L18.7429 25.2348L18.7954 25.1807H18.7665L18.9294 25.0199L18.9005 24.9948C19.0581 24.8881 19.2183 24.7839 19.3759 24.6508L19.326 24.5967L19.4836 24.4636L19.4573 24.3581L19.5887 24.2764L19.5348 24.2514L19.6412 24.1736L19.5624 24.1195L19.6701 24.0391H19.6964C19.8028 24.0128 20.0667 23.8533 20.1219 23.7728L20.093 23.7478L20.1994 23.6674L20.1455 23.6423L20.2782 23.5619H20.2519L20.3045 23.5118L20.2795 23.4828L20.5448 23.3233L20.5724 23.351L20.6223 23.2983L20.6512 23.322C20.8364 23.2165 20.9953 23.1085 21.1542 23.0294L21.1253 23.0056L21.2054 22.9503L21.1805 22.9239L21.4431 22.7657L21.4195 22.7407L21.6835 22.6062H21.6559L21.7097 22.5561L21.6822 22.4731L21.9212 22.3439L21.8673 22.2107L22.0249 21.9708L21.9724 21.8917L22.1589 21.7309L22.0801 21.5978C22.1839 21.545 22.1589 21.4936 22.2088 21.4396L22.1839 21.4132L22.2876 21.3868L22.2338 21.3341L22.3953 21.2273L22.2338 21.0942L22.3139 20.9874L22.2653 20.9334V20.7475L22.1825 20.6684L22.2325 20.642L22.2075 20.5893L22.2653 20.5629L22.2075 20.4825L22.2653 20.4562L22.1825 20.2953L22.3402 20.2453L22.2653 20.1648L22.2863 20.1372L22.2325 20.1134V19.9803C22.2325 19.8735 22.1576 19.7654 22.1825 19.6863L21.9711 19.5255L21.9422 19.5545L21.8884 19.5018L21.6795 19.5255L21.652 19.5018L21.7321 19.4728L21.6782 19.366L21.8385 19.337H21.8634L22.021 19.2091C21.9173 19.101 21.9947 18.9942 21.8096 18.8637L21.8385 18.8387C21.887 18.7833 21.887 18.7833 21.7859 18.7306L21.7058 18.7042V18.546L21.652 18.5197V18.4933L21.5968 18.467H21.6231C21.5167 18.4142 21.4379 18.4142 21.3617 18.4142V18.3325L21.2829 18.2811L21.3079 18.2547L21.2304 18.2284L21.254 18.1994L21.1214 18.1466V18.0425V18.0135L21.254 18.0425L21.3328 18.0135H21.3079V17.9884L21.2304 17.9621L21.1765 17.9884L21.1214 17.908L21.0176 17.8566H20.9112L20.7759 17.7736H20.7523H20.7247L20.8863 17.6945C20.7746 17.6391 20.6985 17.5903 20.6985 17.5363C20.5921 17.4572 20.726 17.4822 20.7523 17.4295L20.7247 17.4031L20.7523 17.3504L20.7247 17.324L20.5671 17.245L20.5921 17.2173L20.4318 17.1659L20.4594 17.1118C20.4069 17.005 20.1954 16.8719 19.9551 16.8719C19.8763 16.7941 19.9301 16.7664 19.7739 16.6873L19.7988 16.661L19.9052 16.6873H20.0116L19.8001 16.5015H19.7752L19.6176 16.4474H19.5335L19.4311 16.3947L19.5086 16.3156C19.4311 16.2325 19.351 16.1284 19.1658 16.0493L18.8479 15.9966L18.8742 15.9715L18.8204 15.9425H18.8479L18.7941 15.9162L18.8217 15.8911L18.5314 15.7303L18.4526 15.7039L18.3213 15.6512L18.1072 15.5431H18.0783C17.9207 15.4904 17.8393 15.439 17.6804 15.41H17.5241C17.4177 15.3599 17.3901 15.3599 17.2877 15.3322L17.2089 15.2795H17.0736L16.9698 15.2267H16.941L16.8858 15.1977H16.7545L16.7006 15.1714H16.4931L16.3565 15.1186H16.3329L16.2002 15.0646C16.0965 15.0646 15.9861 15.0646 15.91 15.0382H15.8811C15.7208 15.0382 15.5659 15.0646 15.4306 15.0646L15.2205 15.0382H15.1666L15.0865 15L15.0327 15.025L14.9552 15C14.8475 15 14.8225 15.025 14.7201 15.0527L14.6899 15.0264L14.5323 15.0527L14.5034 15.0264L14.4246 15.0804L14.397 15.054L14.2394 15.0804L14.2118 15.054L13.9728 15.1081L13.9491 15.0817L13.7351 15.1358C13.4698 15.1608 13.1532 15.2689 12.884 15.3216L12.5741 15.3994L12.5977 15.4284L12.4664 15.4548L12.4926 15.4798L12.2536 15.5062L12.2785 15.5312L12.1748 15.5602H12.1984L11.9909 15.613L12.0159 15.6393L11.8556 15.6921H11.8845L11.723 15.7712L11.7506 15.7975L11.6179 15.8265L11.6429 15.8503L11.5641 15.8793H11.593L11.5404 15.9043V15.9307L11.329 16.0374H11.3566L11.2738 16.0625L11.3014 16.0889L11.1977 16.1152L11.2213 16.1693L10.931 16.3275L10.9599 16.3538L10.8811 16.3802L10.9087 16.4329L10.826 16.4593L10.8549 16.5107L10.7472 16.5384V16.6452L10.6119 16.7005L10.6395 16.7796L10.4005 16.8574V16.9391L10.3256 16.9642L10.3505 17.0433L10.2704 17.0696V17.1777L10.1916 17.2014L10.1641 17.415L10.0866 17.4414L10.0314 17.5996H9.95129L10.0104 17.7063H9.95129L10.0577 17.7591L10.0327 17.7881C10.0117 17.8935 9.97887 17.8131 9.93027 17.8672V17.9463L9.84622 17.9726L9.87249 18.0267L9.79368 18.0504H9.82126L9.77136 18.1308L9.82126 18.1835H9.79368L9.84622 18.2125L9.71751 18.3167V18.3984L9.68862 18.4235L9.77136 18.5039L9.71488 18.5592L9.79237 18.5856L9.73984 18.6634L9.81864 18.7438L9.71488 18.8769C9.71488 18.956 9.81864 18.931 9.73984 19.0377L9.84359 19.0905L9.60456 19.1986C9.73852 19.3264 9.50081 19.4899 9.63477 19.6468L9.55203 19.6731L9.57829 19.7522L9.47191 19.7786L9.52576 19.8063L9.44827 19.8603L9.52576 19.9394L9.44827 20.0462L9.60193 20.2334L9.5494 20.2835L9.68205 20.3916C9.4706 20.4694 9.49687 20.4693 9.5494 20.5498C9.5494 20.5761 9.4706 20.6038 9.60193 20.6289L9.76479 20.6829H9.71094L9.8147 20.787L9.71094 20.8174L9.78843 21.0006L9.5494 21.2669H9.52445C9.63214 21.2919 9.7359 21.3196 9.8147 21.3447L9.60062 21.5846L9.73458 21.6914L9.70963 21.7718L9.57567 21.8258L9.63083 21.9576L9.57567 21.984L9.65972 22.0104L9.60062 22.0631L9.68074 22.1171L9.60062 22.249L9.65972 22.303L9.60062 22.3557L9.70963 22.4085L9.63083 22.5667L9.70963 22.593L9.68074 22.622L9.86592 22.8593L9.78712 22.9674L9.89481 23.0715L9.83965 23.1783L10.0261 23.3391L9.94603 23.4433L10.0524 23.5501L10.0051 23.6028C10.0826 23.7122 10.1588 23.844 10.2652 23.9482L10.2126 23.9759L10.2914 24.0299L10.2376 24.0813L10.3203 24.1367L10.2652 24.1657L10.3453 24.1907L10.2914 24.2184L10.3952 24.2685L10.3453 24.2962L10.4766 24.3766L10.4267 24.4043L10.5068 24.428L10.449 24.4557L10.6907 24.5888L10.6329 24.6139L10.7931 24.6956L10.7393 24.7193L10.8181 24.7747L10.7931 24.7997L11.0558 24.9856L11.0033 25.0107C11.107 25.0647 11.2436 25.1451 11.3513 25.1952L11.2962 25.2255L11.3789 25.2783L11.3526 25.3046C11.6705 25.4905 12.0133 25.6777 12.3324 25.8359C12.49 25.9163 12.6712 25.9967 12.8367 26.0507L12.863 26.0244Z" fill="#8FC31F"/>
<path d="M13.102 44.1158C13.1808 44.1698 13.102 44.1698 13.2596 44.1949L13.3148 44.1698C13.4711 44.2489 13.6326 44.332 13.7889 44.3821H13.8152L13.8979 44.4098L13.9478 44.3821L14.0016 44.4348L14.1343 44.3821L14.2407 44.4612L14.2906 44.4335L14.4771 44.4862L14.5808 44.4612L14.661 44.4862C14.7398 44.4862 14.8212 44.4612 14.9262 44.4612C15.0839 44.4612 15.1902 44.4862 15.378 44.4335C15.5343 44.4862 15.6959 44.5126 15.8522 44.4612L15.9297 44.4335H16.0373L16.1161 44.3808L16.145 44.4084L16.2449 44.3557H16.2777L16.3526 44.3017L16.3814 44.3307L16.539 44.2766L16.6192 44.3307C16.6966 44.2766 16.7255 44.2476 16.8306 44.2226L16.8582 44.2476L17.0696 44.1408L17.0946 44.1685C17.2561 44.0894 17.3835 43.9813 17.5201 43.9035L17.5477 43.9286L17.6265 43.8759L17.6541 43.9035L17.8642 43.7704C17.9969 43.7177 18.4185 43.5582 18.5288 43.4L18.4986 43.371L18.5787 43.3459L18.5288 43.3183L18.6838 43.1851L18.6562 43.1574C18.819 43.0533 18.9464 42.9465 19.0856 42.8411L19.0554 42.787L19.217 42.6552L19.1631 42.5748L19.2945 42.4957L19.2406 42.468L19.347 42.3889L19.2682 42.3612L19.372 42.2544L19.4008 42.2821C19.5099 42.2281 19.7449 42.0963 19.7988 42.0422L19.7712 42.0172L19.8513 41.9354L19.8224 41.9091L19.9301 41.83H19.9012L19.9538 41.7759H19.9301L20.1665 41.6177L20.1915 41.6454L20.2453 41.5914L20.2742 41.6177C20.4318 41.5373 20.5934 41.4305 20.7208 41.3528L20.6971 41.3251L20.7759 41.271L20.7483 41.246L21.0123 41.1129L20.9874 41.0865L21.2277 40.9533H21.1975L21.25 40.8993L21.229 40.8466L21.4352 40.6884L21.3866 40.6093L21.5429 40.3694L21.4891 40.2916L21.6756 40.1308L21.5692 40.0517C21.6756 39.9726 21.6756 39.9475 21.7018 39.8658H21.6743L21.7806 39.8381L21.7307 39.7854L21.8581 39.6786L21.7307 39.5455L21.8095 39.4664L21.7517 39.4123V39.2251L21.7018 39.1724L21.7517 39.1474L21.7018 39.0933L21.7517 39.0683L21.7307 38.9879L21.7517 38.9602L21.7018 38.8284L21.8332 38.7743L21.7806 38.7216V38.6675L21.7307 38.6412V38.5331C21.7307 38.4302 21.6756 38.3498 21.7018 38.2417L21.4878 38.1126L21.4641 38.1376L21.4063 38.1126H21.2264H21.1962L21.2776 38.0585L21.2277 37.9794L21.3564 37.9517H21.3853L21.5416 37.8186C21.4339 37.7118 21.5127 37.6327 21.3564 37.4996V37.4745C21.4063 37.4205 21.4063 37.4205 21.3039 37.3664H21.2264V37.2082L21.1712 37.1806H21.1962L21.1437 37.1529L21.1712 37.1278C21.0885 37.1015 21.011 37.0751 20.9059 37.0751L20.9309 37.0197L20.8521 36.967L20.8849 36.9393L20.8009 36.9116L20.8285 36.8866L20.6971 36.8339L20.7208 36.7258V36.7007L20.8285 36.7535L20.8862 36.7258V36.7007L20.8022 36.673L20.7497 36.7007L20.6971 36.619L20.6131 36.5663H20.5093L20.3767 36.4872L20.3557 36.5135V36.4872L20.4844 36.4331C20.3767 36.3791 20.3241 36.329 20.3241 36.3039C20.2178 36.1945 20.3543 36.2486 20.3767 36.1695H20.357V36.1154L20.3268 36.0904L20.1941 36.0113L20.2217 35.9849L20.0641 35.9322L20.0904 35.8781C20.0352 35.7991 19.854 35.6659 19.6386 35.6659C19.5598 35.5868 19.6136 35.5591 19.456 35.48H19.4823L19.5887 35.5064L19.6924 35.48L19.4823 35.3192L19.3247 35.2665L19.2419 35.2915L19.1382 35.2375L19.2183 35.1333C19.1644 35.0793 19.087 34.9752 18.9005 34.9211L18.6076 34.8407H18.6352L18.5813 34.8157H18.6089L18.5813 34.788V34.7603L18.3186 34.6285L18.2635 34.6008L18.1308 34.523L18.1059 34.5467L17.9207 34.4426H17.8918C17.7605 34.4136 17.6777 34.3358 17.5503 34.3358L17.4164 34.3081C17.31 34.2541 17.2601 34.2791 17.1813 34.2541L17.0985 34.2014H16.9698L16.8858 34.1473H16.8621L16.8043 34.1223H16.6769L16.6467 34.0933H16.4392L16.3328 34.0405L16.304 34.0669L16.1713 34.0142C16.0938 34.0142 15.9888 33.9865 15.9073 33.9865L15.8811 33.9588C15.7497 33.9865 15.5908 33.9865 15.4595 34.0128L15.273 33.9588L15.2231 33.9865L15.1679 33.9588L15.1154 33.9865L15.0379 33.9588C14.9302 33.9588 14.9039 33.9865 14.7975 33.9865H14.6399H14.6163L14.5362 34.0142H14.506H14.3746H14.3497L14.1382 34.0392H14.1093L13.9005 34.0919C13.6602 34.0919 13.3699 34.2 13.1283 34.2528C13.0219 34.2778 12.9181 34.3068 12.8144 34.3345H12.8643L12.7356 34.3872H12.7605L12.5491 34.4123L12.5767 34.4413L12.4729 34.469H12.4965L12.31 34.5217L12.3389 34.5454L12.1787 34.5718L12.2063 34.5995L12.0461 34.6799H12.0999L11.9659 34.7049L11.9962 34.7326L11.916 34.7577H11.941L11.8885 34.7853V34.813L11.7059 34.8934L11.7309 34.9185H11.6507L11.677 34.9725L11.5693 34.9976L11.5982 35.0253L11.3342 35.1584L11.3631 35.2111H11.2804L11.3053 35.2902L11.2252 35.3179L11.2541 35.3429L11.1477 35.3693V35.4484L11.0413 35.5315L11.065 35.5842L10.8286 35.6633L10.8575 35.7424H10.7787V35.8491L10.6999 35.8768L10.7235 35.9559L10.6447 35.9836L10.6171 36.1945H10.5383L10.5173 36.329L10.4333 36.354L10.4871 36.4621H10.4333L10.5396 36.5149H10.4871C10.4871 36.619 10.4608 36.5425 10.4083 36.5966V36.6744L10.3334 36.702L10.3545 36.7271L10.277 36.7548L10.3006 36.7825L10.2507 36.8615L10.3334 36.8892H10.2783L10.3334 36.9143L10.1969 37.0211L10.2231 37.1028H10.1693L10.277 37.1819L10.2231 37.2359L10.277 37.261L10.2231 37.3414L10.3006 37.4205L10.1969 37.5286C10.2231 37.6064 10.3006 37.5787 10.2231 37.6854L10.3321 37.7408L10.1128 37.8199C10.2441 37.953 10.0051 38.0862 10.1364 38.2431L10.0576 38.2721V38.3512L9.97884 38.3788H10.0314L9.97884 38.4329L10.0314 38.512L9.95126 38.6188L10.1141 38.7769L10.059 38.831L10.1653 38.9101C9.98016 38.9892 10.0077 38.9892 10.059 39.096C10.059 39.096 9.98016 39.1236 10.1141 39.15L10.2455 39.2001H10.2179L10.2954 39.3082L10.2179 39.3359L10.2954 39.469L10.059 39.734H10.0327C10.1154 39.7617 10.2192 39.788 10.3282 39.8131L10.1128 40.0253L10.2166 40.1321V40.2112L10.0852 40.2652L10.1351 40.372H10.0865L10.164 40.4247L10.1128 40.4775L10.1627 40.5025L10.0852 40.6383L10.1627 40.6897L10.1128 40.7437L10.2166 40.7965L10.1364 40.9283L10.2166 40.956L10.1627 40.9837L10.3479 41.2236L10.294 41.3027L10.3742 41.4108L10.3256 41.4885L10.4792 41.6217L10.4254 41.7285L10.5094 41.8352L10.4517 41.8893C10.5305 41.9961 10.6368 42.1015 10.7156 42.2083L10.6631 42.2333L10.7432 42.261L10.6907 42.3428L10.7432 42.3678L10.7143 42.3955L10.7695 42.4219L10.7432 42.4495L10.8496 42.5023L10.7957 42.53L10.9034 42.609H10.8496L10.9297 42.6631L10.8772 42.6829L11.1123 42.787L11.0597 42.8121L11.1937 42.8951L11.1661 42.9188L11.2462 42.9478L11.1924 42.9729L11.4327 43.1587L11.3789 43.1864C11.5102 43.2392 11.6192 43.2932 11.723 43.3723L11.6691 43.4013L11.7466 43.4263L11.698 43.454C12.0132 43.6149 12.3035 43.773 12.62 43.9589C12.7776 44.0143 12.9129 44.0921 13.0718 44.1448L13.102 44.1158Z" fill="#008CD6"/>
<path d="M3.22822 35.2163C3.30834 35.2414 3.22822 35.2704 3.38583 35.2954L3.43967 35.2704C3.62748 35.3231 3.78377 35.3745 3.97158 35.4536L4.02149 35.4272L4.10029 35.4536L4.15545 35.4272L4.23819 35.4536L4.36427 35.4272L4.47197 35.4826L4.52582 35.4536L4.73989 35.509L4.87254 35.4536L4.9474 35.509C5.02752 35.4826 5.13259 35.4536 5.24028 35.4536C5.42678 35.4272 5.53053 35.4826 5.74461 35.4009C5.90615 35.4536 6.08608 35.4536 6.27389 35.4272L6.34875 35.3745H6.48534L6.56283 35.3218L6.59041 35.3468L6.727 35.269L6.77559 35.2941L6.85702 35.24L6.88591 35.269L7.07241 35.215L7.121 35.24C7.25234 35.19 7.28123 35.161 7.3863 35.1359L7.41125 35.161L7.6516 35.0542L7.7015 35.0805C7.86305 34.9764 8.02065 34.8973 8.17694 34.7892L8.20583 34.8169L8.28595 34.7628L8.3109 34.7905L8.55124 34.6574C8.70885 34.6047 9.21055 34.4175 9.3432 34.2843L9.29066 34.2593L9.37078 34.2329L9.34188 34.2079L9.49949 34.0747L9.47322 34.0484C9.63476 33.9416 9.81994 33.8361 9.97755 33.732L9.92501 33.6779L10.1128 33.5448L10.0826 33.4657L10.2153 33.3853H10.1614L10.2691 33.2785L10.2153 33.2522L10.323 33.1744H10.3466C10.453 33.1454 10.7445 32.9885 10.7971 32.9318L10.7721 32.9081L10.8509 32.8277L10.8233 32.8013L10.956 32.7512L10.9297 32.7249L10.9823 32.6959L10.9573 32.6721C11.0611 32.6181 11.1425 32.564 11.2502 32.51L11.2738 32.5377L11.3277 32.51H11.3579C11.5391 32.4322 11.7256 32.3267 11.8858 32.2187H11.8596L11.9384 32.1646L11.9121 32.1396C12.0185 32.0868 12.0973 32.0328 12.2011 31.9814H12.1748C12.2825 31.9286 12.3613 31.9023 12.469 31.8482L12.4388 31.8205L12.4926 31.7968L12.4388 31.7428L12.7067 31.5846L12.6765 31.5042L12.838 31.2643L12.7829 31.1865L12.9983 31.0533L12.8906 30.9742C13.0219 30.8938 12.9983 30.8675 13.0521 30.7871H13.0219L13.1296 30.762L13.102 30.708L13.236 30.6012L13.102 30.4931L13.1808 30.4153L13.1283 30.3626V30.2031L13.0731 30.149L13.1283 30.1227L13.1007 30.0436H13.1559L13.1007 29.9645L13.1559 29.9381L13.1007 29.8313L13.2347 29.7509L13.1795 29.6982L13.2084 29.6718L13.1559 29.6455V29.5387C13.1559 29.4319 13.0718 29.3528 13.127 29.2724L12.8879 29.1406L12.8617 29.1656L12.8118 29.1406C12.7316 29.1656 12.7054 29.1406 12.5977 29.1656L12.5727 29.1406L12.6515 29.1142L12.6266 29.0351L12.7816 28.9798H12.8118L12.9694 28.8743C12.8617 28.7675 12.9431 28.6884 12.7816 28.583V28.5289C12.8367 28.5039 12.8367 28.5039 12.7316 28.4498H12.6528L12.6765 28.2916L12.599 28.2653H12.6279L12.574 28.2376H12.599C12.4926 28.1835 12.4138 28.1835 12.3061 28.1835L12.335 28.1334L12.2549 28.0781H12.2838L12.2011 28.0254H12.2273L12.096 27.9726V27.8658V27.8395L12.2273 27.8922L12.3061 27.8658L12.2825 27.8395H12.3061L12.1997 27.8118L12.1498 27.8395L12.096 27.7604L12.0172 27.7077H11.8858L11.7519 27.6549L11.7269 27.6787L11.698 27.6549L11.8858 27.5996C11.7519 27.5455 11.6718 27.5192 11.698 27.4677C11.5956 27.3847 11.7269 27.415 11.7519 27.361H11.7269L11.7519 27.3069L11.7269 27.2806L11.5654 27.2015H11.5956L11.438 27.1487L11.4616 27.0947C11.4065 27.0156 11.1963 26.9088 10.9586 26.9088C10.8798 26.8548 10.9324 26.8297 10.7734 26.7493H10.7984L10.9061 26.777L11.0348 26.7493L10.8247 26.5898H10.7984L10.6382 26.5608H10.5331L10.4267 26.5081L10.5331 26.4303C10.4543 26.3776 10.3755 26.2972 10.1627 26.2444L9.87248 26.1904L9.89875 26.1653H9.84358L9.87248 26.1376L9.81994 26.1113L9.84358 26.0836C9.7372 26.0586 9.66103 26.0045 9.55071 25.9768L9.47322 25.9505L9.34188 25.8977L9.31693 25.9254L9.13043 25.8186L9.10679 25.8437C8.94919 25.7909 8.86514 25.7369 8.70885 25.7369C8.63004 25.7119 8.63005 25.7119 8.55124 25.7369C8.44749 25.6842 8.39102 25.7119 8.28595 25.6842L8.20583 25.6301L8.07318 25.6565L7.96943 25.6024H7.94185L7.888 25.5761H7.75535H7.7015H7.49137L7.35872 25.5233L7.32983 25.551L7.20112 25.4983H6.88591L6.85702 25.4693C6.69679 25.4983 6.54181 25.4983 6.40785 25.5233L6.19771 25.4983L6.13993 25.5233L6.06507 25.4983L5.98233 25.5233L5.90746 25.4983C5.82341 25.4983 5.7735 25.551 5.66581 25.551L5.63954 25.5233L5.48194 25.551H5.4583L5.37556 25.5761H5.34929L5.19169 25.6024L5.16673 25.5761L4.90144 25.6301H4.87254L4.65846 25.6842C4.39711 25.7105 4.05038 25.8173 3.78377 25.87C3.67608 25.8977 3.54868 25.9241 3.43967 25.9491L3.46331 25.9755L3.33592 26.0032L3.36219 26.0282L3.12578 26.0572L3.14942 26.0823L3.04304 26.11H3.06931L2.85786 26.164L2.8815 26.1891L2.69894 26.2141L2.72521 26.2431L2.56498 26.3222H2.59387L2.43758 26.3762H2.45728L2.40738 26.4H2.43758L2.35353 26.4277L2.3798 26.4804L2.14077 26.5582H2.16966L2.09086 26.5872L2.11187 26.6148L2.00943 26.6399V26.6939C1.93063 26.719 1.82687 26.7744 1.71655 26.8271L1.74545 26.8521L1.66796 26.8785L1.68897 26.9325L1.61017 26.9576V26.984L1.50379 27.038V27.1184L1.37245 27.1685L1.39872 27.2212L1.13736 27.3254L1.16363 27.3781L1.08352 27.4084V27.4862L1.00603 27.5126V27.593L0.923288 27.6207L0.874693 27.8065L0.795892 27.8342L0.738105 27.9674L0.659303 27.9924L0.688197 28.0715L0.659303 28.0979L0.768312 28.1269L0.715778 28.1519L0.608083 28.231V28.285L0.527968 28.3127L0.552922 28.3655L0.474121 28.3905H0.501701L0.420273 28.4709L0.501701 28.4986H0.45442L0.529281 28.5236L0.372992 28.6317V28.6845L0.344099 28.7095L0.421586 28.7873L0.372992 28.815L0.453107 28.8413L0.372992 28.9204L0.453107 28.9995L0.344099 29.1063C0.344099 29.1854 0.453107 29.159 0.372992 29.2394L0.453107 29.2922L0.21145 29.399C0.344099 29.5057 0.0801146 29.6652 0.23509 29.772L0.131335 29.8234L0.158916 29.8762L0.0525341 29.9052L0.110322 29.9302L0.0315205 29.9842L0.110322 30.037L0 30.1424L0.157602 30.2756L0.109008 30.3283L0.23509 30.4351C0 30.5155 0.0525341 30.5155 0.109008 30.5946C0.109008 30.5946 0.0302071 30.621 0.157602 30.6473L0.319145 30.6737L0.263984 30.7014L0.344099 30.7805L0.263984 30.8068L0.319145 30.94L0.0801146 31.1799L0.0302071 31.2076C0.131335 31.2326 0.23509 31.2577 0.344099 31.2577L0.109008 31.4699L0.23509 31.5793L0.21145 31.6334L0.0512208 31.6861L0.109008 31.7929L0.0512208 31.8166L0.130022 31.8443L0.0801146 31.8983L0.157602 31.9247L0.0512208 32.0565L0.130022 32.0842L0.0801146 32.1369L0.186496 32.191L0.109008 32.3241L0.186496 32.3478L0.131335 32.3755L0.319145 32.5864L0.23509 32.6669L0.344099 32.771L0.263984 32.8501L0.45442 32.9845L0.374306 33.0623L0.476747 33.1704L0.397946 33.2231C0.476747 33.3299 0.584442 33.409 0.66193 33.5145L0.612023 33.5408L0.690824 33.5685L0.635663 33.6199L0.719718 33.6753H0.660617L0.739418 33.7294L0.689511 33.7544L0.797206 33.7821L0.739418 33.8071L0.876007 33.8612L0.818219 33.8889L0.900961 33.9139L0.8458 33.9416L1.08483 34.0484L1.03098 34.0747L1.19384 34.1538H1.13736L1.21748 34.2079H1.16494L1.4263 34.3937L1.37639 34.4188C1.48278 34.4478 1.6128 34.4992 1.71918 34.5519L1.67059 34.5783L1.74807 34.6323H1.69291C2.03701 34.7905 2.38242 34.9237 2.70025 35.0819C2.86048 35.1372 3.0194 35.1913 3.20458 35.2414L3.22822 35.2163Z" fill="#008CD6"/>
<path d="M26.5994 34.4479C26.5219 34.4756 26.5994 34.4756 26.4418 34.5006H26.3893C26.2316 34.5534 26.0452 34.6338 25.8889 34.7129L25.835 34.6878L25.751 34.7129H25.705L25.6249 34.7406L25.5172 34.7129L25.3845 34.7656H25.3583L25.1468 34.8197L25.0155 34.792L24.9367 34.8197C24.8579 34.8197 24.7502 34.8197 24.6688 34.792C24.4836 34.792 24.3536 34.8447 24.1684 34.792C24.0081 34.8447 23.8505 34.8711 23.664 34.8447L23.5852 34.792L23.4828 34.8197L23.404 34.7656L23.3462 34.7933L23.2477 34.7142L23.2149 34.7419L23.1374 34.7142H23.0835L22.9496 34.6891L22.8708 34.7142C22.7644 34.6615 22.7145 34.6615 22.6304 34.6351L22.6055 34.6615L22.3704 34.5811H22.3402C22.1826 34.502 22.0512 34.4202 21.8897 34.3438L21.8661 34.3688L21.7886 34.3161L21.7597 34.3438L21.5456 34.2357C21.4143 34.1829 20.9375 34.0498 20.8351 33.9167L20.8561 33.8929L20.8036 33.8653L20.8338 33.8389L20.6722 33.7057L20.6985 33.6807C20.5698 33.6016 20.4082 33.4948 20.2493 33.4144L20.3019 33.3617L20.1443 33.2285L20.1942 33.1468L20.0628 33.0941L20.0891 33.0664L20.0103 32.9886L20.0628 32.9596L19.9814 32.8542L19.9564 32.8819C19.8501 32.8542 19.5848 32.721 19.5335 32.6696L19.5585 32.6406L19.481 32.5615L19.506 32.5352L19.3996 32.4811L19.4272 32.4561L19.3733 32.431H19.4009L19.1369 32.2702L19.112 32.2992L19.0542 32.2702L19.0305 32.2992C18.8729 32.1924 18.7114 32.1107 18.5538 32.0303L18.5827 32.0026L18.5026 31.9775L18.5301 31.9499C18.4487 31.8971 18.3476 31.8708 18.2622 31.8167L18.2911 31.7917C18.211 31.7627 18.1309 31.7389 18.0271 31.6849H18.0508L18.0022 31.6572L18.0508 31.5781L17.8144 31.4437L17.8682 31.3395L17.7106 31.1523L17.7894 31.0746L17.6042 30.9414L17.6791 30.8346C17.5753 30.7806 17.6042 30.7279 17.5517 30.6738H17.6042L17.4965 30.6474L17.5241 30.5947L17.3915 30.5156L17.553 30.3825L17.4453 30.3034L17.5241 30.2507V30.0898L17.5766 30.0358L17.553 30.0107L17.5766 29.9567L17.5241 29.9303L17.5766 29.8512H17.5241L17.6042 29.7194L17.4703 29.639L17.5241 29.5876L17.4965 29.5599L17.5753 29.5335L17.5517 29.4268C17.5753 29.3477 17.6581 29.2422 17.6305 29.1605L17.8406 29.0313H17.8682L17.9221 29.0023L18.1322 29.0313L18.1585 29.0023L18.0797 28.9746L18.1322 28.8968L17.9746 28.8692H17.9496L17.8157 28.7624C17.8945 28.6556 17.8419 28.5765 18.0298 28.4434L18.0048 28.4144C17.951 28.3906 17.951 28.3643 18.0534 28.3366L18.1348 28.3115V28.1771L18.19 28.152V28.1283L18.2399 28.098H18.2123C18.32 28.0453 18.3988 28.0453 18.4763 28.0453V27.9912L18.5564 27.9121H18.5315L18.6089 27.8858L18.5853 27.8607L18.714 27.808V27.7012L18.5853 27.7262L18.5315 27.7012H18.5564H18.5315L18.6352 27.6485L18.6602 27.6735L18.7429 27.5931L18.8217 27.5391H18.953L19.087 27.4863L19.1146 27.4613L18.953 27.4086C19.087 27.3545 19.1645 27.3281 19.1645 27.2741C19.2709 27.195 19.1395 27.22 19.087 27.1673H19.1395L19.1146 27.1172L19.1395 27.0895L19.2971 27.0091H19.2696L19.4298 26.93L19.4022 26.905C19.4574 26.7969 19.6675 26.6901 19.9065 26.6637C19.984 26.611 19.9302 26.5847 20.0917 26.5029H20.0655L19.9591 26.5293L19.8527 26.5029L20.0641 26.3447L20.0904 26.3737L20.2506 26.2933L20.3281 26.3197L20.4345 26.2656L20.3557 26.1865C20.4345 26.1338 20.5133 26.0284 20.7248 25.9466L21.0176 25.8939L20.9927 25.8662L21.0452 25.8399H21.0176L21.0702 25.8148L21.0452 25.7871C21.149 25.7594 21.2317 25.708 21.3355 25.654L21.4143 25.6276L21.5456 25.5749L21.7597 25.4668L21.7886 25.4958C21.9422 25.4417 22.025 25.389 22.1813 25.3627C22.264 25.3363 22.2338 25.3363 22.3139 25.3627C22.4479 25.3086 22.4741 25.3086 22.5818 25.2822L22.6567 25.2295H22.7933L22.897 25.1755H22.922L22.9758 25.1504H23.1072L23.161 25.1241H23.3712L23.5051 25.07H23.5327L23.664 25.045C23.7468 25.016 23.8505 25.016 23.9582 24.9909H23.9832C24.1145 24.9909 24.2734 24.9909 24.4061 25.016L24.5913 24.9632L24.6688 24.9896L24.7502 24.9632H24.804L24.8828 24.9355C24.9643 24.9355 24.9866 24.9896 25.1219 24.9896L25.1468 24.9632H25.2795H25.3084L25.3858 24.9896H25.4134H25.5697H25.5973L25.839 25.0146L25.8626 24.9896L26.0767 25.0436C26.3157 25.0436 26.6309 25.1227 26.8949 25.1755C27.0039 25.2005 27.109 25.2005 27.2127 25.2295L27.1878 25.2546L27.3191 25.2822H27.2915L27.5332 25.3086L27.5043 25.3363L27.5831 25.3627H27.5581L27.7643 25.4167H27.7459L27.9009 25.4417L27.8747 25.4668L28.0375 25.5472H28.0073L28.14 25.5736L28.1163 25.5986H28.1938L28.14 25.6263H28.2174L28.1938 25.6803L28.4039 25.7331L28.3777 25.7594H28.4604L28.4328 25.8135H28.5392L28.5103 25.8662C28.618 25.8939 28.6968 25.9453 28.7782 25.973L28.748 26.027H28.8308V26.1061H28.8833L28.8544 26.1602H28.9871L28.9621 26.2643L29.0948 26.3184L29.0659 26.3724L29.3062 26.4515L29.2786 26.5016L29.3587 26.528V26.6084H29.4336L29.4139 26.7125H29.4914L29.515 26.9274H29.5978L29.6227 27.0592L29.7015 27.0869L29.6766 27.1647H29.7015L29.5978 27.2174H29.6503L29.7541 27.2978L29.7278 27.3756H29.8079L29.779 27.4323L29.8618 27.4586H29.8329L29.888 27.5364L29.8329 27.5654H29.8618L29.8079 27.5905L29.9406 27.6986L29.9156 27.7513L29.9681 27.779L29.8618 27.8304L29.9156 27.8831L29.8618 27.9095L29.9156 27.9886L29.8079 28.0426L29.9156 28.1494L29.888 28.3102L29.779 28.363L30.018 28.442C29.8618 28.5752 30.1244 28.682 29.9681 28.8151L30.0469 28.8415V28.9206L30.1244 28.9456L30.0995 28.972L30.1533 28.9997L30.0732 29.0788L30.1533 29.1855L29.9957 29.3187L30.0483 29.3727L29.9169 29.4795C30.1244 29.5322 30.0732 29.5322 30.0194 29.6113C30.0194 29.6377 30.0995 29.6377 29.9695 29.6904L29.8092 29.7194L29.8631 29.7431L29.7554 29.8236L29.8631 29.8499L29.7803 30.0107L29.9957 30.223H30.0483C29.9419 30.2507 29.8342 30.2757 29.7291 30.3021L29.9432 30.4853L29.8105 30.6198L29.8355 30.6725L29.9695 30.7265L29.9169 30.8333H29.9695L29.8907 30.886L29.9432 30.9401L29.8644 30.9678L29.9432 31.0746L29.8644 31.1286L29.9182 31.1813L29.8105 31.2341L29.8907 31.3408L29.8105 31.3936H29.8644L29.6529 31.6348L29.7055 31.7139L29.6267 31.793L29.6805 31.8998L29.4953 32.0316L29.5452 32.1107L29.4375 32.2175L29.519 32.2715C29.4192 32.3796 29.3325 32.4824 29.2314 32.5628L29.2813 32.5905L29.2025 32.6433L29.255 32.696L29.1749 32.725L29.2327 32.7513L29.1512 32.7764L29.2038 32.8014L29.0698 32.8568L29.125 32.8845L29.0186 32.9346L29.0685 32.9623L28.9897 32.9913L29.0186 33.0163L28.7822 33.1231L28.8347 33.1481L28.6732 33.2299L28.731 33.2549L28.6482 33.2826L28.7021 33.3103C28.6233 33.3643 28.5156 33.4434 28.4381 33.4975L28.4906 33.5225C28.358 33.5766 28.2516 33.6293 28.1229 33.6833L28.1715 33.7084L28.094 33.7624H28.1465C27.8024 33.9206 27.4596 34.1065 27.1392 34.2673C26.9829 34.3214 26.8213 34.4005 26.6677 34.4545H26.5994V34.4479Z" fill="#008CD6"/>
<path d="M53.5362 16.2509C54.0616 16.2707 54.3466 16.5119 54.3925 16.9706C54.3453 17.4505 54.0603 17.7102 53.5362 17.7524H52.1651V43.3643C52.1414 43.8441 51.8788 44.1038 51.3771 44.146C50.8281 44.1038 50.5418 43.8441 50.5208 43.3643V39.1104C49.8575 39.4439 49.172 39.7669 48.4641 40.0793C47.3201 40.538 46.0422 40.9757 44.6251 41.3922C44.3506 41.4542 44.1326 41.4964 43.9737 41.5175C43.5153 41.4555 43.2763 41.2354 43.254 40.861C43.2763 40.4655 43.5153 40.2243 43.9737 40.1412C44.4754 39.9738 44.9338 39.8169 45.3448 39.6719V17.7524H43.8371C43.2881 17.7102 43.0018 17.4505 42.9808 16.9706C43.0031 16.5119 43.2894 16.272 43.8371 16.2509H53.5362ZM46.9905 23.3496H50.5208V17.7524H46.9905V23.3496ZM46.9905 30.7607H50.5208V24.851H46.9905V30.7607ZM46.9905 39.0801C47.4475 38.9126 47.8245 38.7558 48.1213 38.6108C48.9198 38.2351 49.675 37.8291 50.3829 37.3914C50.4275 37.3492 50.4735 37.3176 50.5195 37.2978V32.2635H46.9892V39.0801H46.9905ZM58.6425 15.4692C59.0536 15.489 59.2703 15.7513 59.294 16.2509C59.294 16.2931 59.2703 16.3959 59.2257 16.5633C58.4482 18.4194 57.5341 19.9512 56.4834 21.16C57.2819 21.6807 58.129 22.3372 59.0195 23.1307C60.1608 21.4421 61.1314 19.7218 61.9325 17.9712C62.0914 17.7418 62.3094 17.6271 62.5839 17.6271C63.1776 17.6469 63.4967 17.8881 63.544 18.3469C63.544 18.5143 63.4626 18.7331 63.3036 19.0034C62.6181 20.4416 61.7723 21.8692 60.7676 23.2876C59.7615 24.851 58.4022 26.5608 56.6896 28.4169C58.9052 28.2916 60.5837 27.999 61.7276 27.5416V27.5099C61.5674 27.009 61.3034 26.4263 60.9396 25.7593C60.8477 25.5721 60.803 25.4469 60.803 25.3836C60.8477 24.9038 61.1327 24.6441 61.6593 24.6019C61.9548 24.6019 62.1728 24.7785 62.3107 25.1331C62.949 26.2167 63.3838 27.3109 63.6136 28.4169C63.7502 29.0839 63.8198 29.5321 63.8198 29.7615C63.7961 30.3046 63.5335 30.5946 63.0318 30.6368C62.4828 30.5748 62.1965 30.2822 62.1755 29.7615C62.1282 29.4912 62.0835 29.2302 62.0389 28.9798C60.279 29.6468 57.6391 29.9803 54.122 29.9803C53.2998 29.9803 52.8887 29.7417 52.8887 29.2605C52.8887 28.7596 53.2539 28.4986 53.9854 28.4788H54.6027C56.0421 26.9774 57.2071 25.6328 58.0988 24.445C58.0305 24.3831 57.9727 24.3198 57.9281 24.2578C56.465 22.8196 55.0019 21.7242 53.5415 20.9741C53.3813 20.7658 53.2893 20.5984 53.267 20.4732C53.3116 20.0355 53.552 19.7851 53.9867 19.7231C54.2612 19.7231 54.5226 19.8589 54.7747 20.1291C54.9113 20.1911 55.0361 20.2544 55.1517 20.3163L55.1858 20.2544C56.1222 19.0666 56.9444 17.6904 57.6536 16.127C57.8073 15.688 58.1395 15.4692 58.6425 15.4692ZM55.1805 31.3552C55.7505 31.3552 56.0369 31.6162 56.0369 32.1369V35.6078C56.0369 36.441 56.4939 36.8588 57.408 36.8588H60.6638V32.3874C60.7085 31.8865 60.9935 31.6254 61.5201 31.6057C62.0218 31.6254 62.2845 31.8878 62.3081 32.3874V36.8588C62.3081 37.8594 62.1137 38.7874 61.725 39.6416C61.3349 40.4972 60.6966 41.2367 59.8062 41.8615C58.9604 42.5496 57.6129 43.2694 55.7624 44.0195C55.4642 44.1025 55.2252 44.1447 55.0426 44.1447C54.4713 44.0827 54.1627 43.7809 54.1167 43.2378C54.185 42.9451 54.3676 42.7487 54.6657 42.6432C56.2641 42.0606 57.4632 41.4977 58.2643 40.9546C59.0405 40.5169 59.6696 39.8802 60.149 39.0471C60.2632 38.8177 60.3552 38.5884 60.4235 38.359H56.8249C55.2016 38.359 54.3912 37.6195 54.3912 36.1391V32.1369C54.3925 31.6162 54.6539 31.3552 55.1805 31.3552ZM69.3017 15.7196C69.7351 15.7618 69.9637 16.0123 69.9873 16.4697C69.9873 16.5317 69.9637 16.6569 69.919 16.8454C69.2558 18.7015 68.5019 20.2544 67.6574 21.5054C68.4559 22.0063 69.303 22.6114 70.1935 23.3193C71.1982 21.6504 72.044 19.9525 72.7296 18.2216C72.9121 17.9923 73.1512 17.867 73.4493 17.846C74.0193 17.8657 74.3279 18.1281 74.3752 18.6277C74.3752 18.7727 74.2833 18.9717 74.1007 19.2222C73.5294 20.6815 72.7979 22.1197 71.9074 23.5381C71.017 25.0817 69.8047 26.7796 68.2747 28.6357C70.2158 28.4907 71.7025 28.2297 72.7296 27.854C72.7059 27.7287 72.6823 27.6352 72.6613 27.5719C72.5011 27.092 72.2607 26.5199 71.9416 25.8516C71.8496 25.6842 71.805 25.5695 71.805 25.5075C71.8496 25.0277 72.1136 24.768 72.593 24.7258C72.9358 24.7258 73.1761 24.9025 73.3127 25.2571C73.93 26.2998 74.3516 27.3728 74.5814 28.4775C74.7403 29.1023 74.8218 29.5295 74.8218 29.7601C74.7745 30.3033 74.4895 30.5933 73.9654 30.6355C73.4624 30.5735 73.1984 30.2808 73.1774 29.7601C73.1538 29.5927 73.1301 29.4359 73.1091 29.2909C71.3033 29.9157 68.6648 30.2294 65.1922 30.2294C64.3911 30.2294 63.98 29.9908 63.959 29.5097C63.9813 29.0088 64.3464 28.7477 65.0557 28.728H66.1865C67.5064 27.2067 68.5584 25.8516 69.3359 24.6625C69.2886 24.6006 69.2439 24.5373 69.1993 24.4753C67.5064 22.995 65.8621 21.8797 64.2637 21.1297C64.0798 20.9003 63.9774 20.7237 63.9551 20.5984C63.9997 20.1608 64.2401 19.9209 64.6748 19.8787C64.9493 19.8787 65.2106 20.0039 65.4628 20.2544C65.7373 20.3796 66.0118 20.5154 66.285 20.6604L66.3191 20.5984C67.0953 19.3896 67.769 17.983 68.3417 16.3761C68.5242 15.9385 68.8434 15.7196 69.3017 15.7196ZM73.1735 31.3552C73.6988 31.3552 73.9615 31.6162 73.9615 32.1369V36.0152C73.9615 37.4955 73.1499 38.2351 71.5279 38.2351H67.5523V43.7387C67.5051 44.2185 67.2201 44.469 66.696 44.4888C66.193 44.469 65.929 44.2185 65.908 43.7387V32.2622C65.9303 31.7612 66.193 31.5002 66.696 31.4804C67.2214 31.5002 67.5064 31.7625 67.5523 32.2622V36.8588H70.9447C71.8575 36.8588 72.3159 36.441 72.3159 35.6078V32.1369C72.3172 31.6162 72.6022 31.3552 73.1735 31.3552Z" fill="white"/>
<path d="M93.868 20.472C94.3014 20.4918 94.5299 20.7541 94.5536 21.2537C94.5536 21.2959 94.5299 21.4211 94.4853 21.6294C93.9363 23.3181 93.3203 24.7681 92.6348 25.9756H95.377C95.9024 25.9954 96.1874 26.2577 96.2334 26.7573C96.1861 27.2161 95.9011 27.456 95.377 27.4771H90.0304V31.0113H96.5078C97.0095 31.031 97.2722 31.2723 97.2959 31.731C97.2722 32.2109 97.0095 32.4613 96.5078 32.4811H90.0987C91.0587 33.9193 92.1895 35.2533 93.4911 36.4846C94.0611 37.0896 94.8281 37.7672 95.7868 38.5173C95.8774 38.7256 95.9234 38.893 95.9234 39.0182C95.8315 39.4137 95.5688 39.6549 95.1354 39.738C94.8149 39.738 94.5299 39.6127 94.2791 39.3623C93.2507 38.57 92.313 37.6736 91.4685 36.6731C90.9419 36.0904 90.4625 35.4735 90.0291 34.8275V43.4897C90.0054 43.9695 89.7375 44.2292 89.2253 44.2714C88.5739 44.2292 88.2363 43.9695 88.2127 43.4897V34.9528C87.6637 35.745 87.0688 36.474 86.4305 37.1424C85.1972 38.4764 83.7447 39.7577 82.078 40.989C81.7799 41.0931 81.5409 41.1458 81.3583 41.1458C80.8789 41.0206 80.615 40.7701 80.5703 40.3958C80.5703 40.1255 80.6951 39.8645 80.9472 39.6141C82.7295 38.363 84.1558 37.1753 85.2314 36.0495C86.1678 35.1321 87.1042 33.943 88.042 32.485H81.3583C80.8553 32.4653 80.5913 32.2148 80.5703 31.735C80.5926 31.2762 80.8553 31.0363 81.3583 31.0152H88.2127V27.4771H82.7295C82.2264 27.4573 81.9625 27.2161 81.9414 26.7573C81.9638 26.2564 82.2264 25.9954 82.7295 25.9756H90.8171C90.8394 25.9334 90.8617 25.8926 90.8854 25.8504C91.6616 24.4952 92.3353 22.9213 92.9079 21.1285C93.0905 20.6921 93.4096 20.472 93.868 20.472ZM89.2411 15C89.8347 15.0198 90.1433 15.3124 90.167 15.8753V17.8461H96.0954C96.5972 17.8658 96.8598 18.1282 96.8835 18.6278C96.8598 19.0865 96.5972 19.3264 96.0954 19.3475H81.9756C81.4266 19.3278 81.1403 19.0865 81.1193 18.6278C81.1416 18.1268 81.4279 17.8658 81.9756 17.8461H88.2468V15.8753C88.2692 15.3124 88.6015 15.0198 89.2411 15ZM84.2713 20.472C84.5905 20.472 84.8308 20.555 84.991 20.7225C85.5164 21.5147 86.0536 22.651 86.6012 24.1314C86.6695 24.3397 86.7155 24.4952 86.7378 24.6007C86.7378 25.1214 86.4173 25.3824 85.7777 25.3824C85.4796 25.3824 85.2511 25.2058 85.0922 24.8512C84.6338 23.5382 84.1439 22.506 83.6186 21.7546C83.5267 21.5042 83.482 21.3367 83.482 21.2537C83.5516 20.816 83.8143 20.555 84.2713 20.472ZM111.416 15.3441C111.965 15.3441 112.25 15.6051 112.272 16.1258C112.204 16.5634 111.917 16.8033 111.416 16.8455C109.154 17.4084 106.011 17.7841 101.991 17.9713C101.077 17.9713 100.62 18.3892 100.62 19.2223V24.7259H112.101C112.627 24.7457 112.9 25.008 112.923 25.5076C112.9 25.9664 112.625 26.2063 112.101 26.2274H108.537V43.4897C108.513 43.9695 108.239 44.2292 107.715 44.2714C107.12 44.2292 106.811 43.9695 106.789 43.4897V26.2261H100.62V27.2266C100.62 30.2915 100.38 33.1257 99.9002 35.7332C99.3736 38.3604 98.4135 40.9442 97.0214 43.4883C96.7928 43.8219 96.4842 43.9998 96.0954 44.0196C95.5688 43.9576 95.2943 43.6953 95.2733 43.2379C95.2733 43.0929 95.3521 42.8938 95.5136 42.6434C96.9294 39.6615 97.7976 37.2135 98.118 35.2942C98.5751 32.8752 98.8036 30.186 98.8036 27.2266V19.0035C98.8036 17.3148 99.7164 16.4698 101.546 16.4698C105.2 16.4698 108.49 16.0941 111.416 15.3441Z" fill="white"/>
<path d="M119.291 29.1354H122.821C124.397 29.1354 125.186 29.8341 125.186 31.2301V37.5154C125.62 38.8917 126.465 39.9541 127.722 40.7055C129.368 41.6441 131.504 42.1134 134.132 42.1134H149.691C150.284 42.1332 150.604 42.443 150.651 43.0375C150.604 43.4844 150.284 43.7282 149.691 43.7704H134.268C131.959 43.7704 130.018 43.5094 128.442 42.9887C126.75 42.3217 125.427 41.2487 124.467 39.7683C123.94 40.7688 123.288 41.5822 122.514 42.207C121.736 42.9149 120.776 43.4778 119.635 43.8957C119.406 43.9998 119.19 44.0525 118.983 44.0525C118.525 43.9695 118.264 43.7085 118.195 43.2708C118.218 42.8121 118.436 42.5207 118.847 42.3955C119.988 42.0198 121.006 41.3844 121.896 40.488C122.877 39.5705 123.37 38.5911 123.37 37.5484V31.9195C123.37 31.1694 122.969 30.7937 122.171 30.7937H119.292C118.721 30.7937 118.436 30.5275 118.436 29.9962C118.433 29.4215 118.718 29.1354 119.291 29.1354ZM120.079 21.5042C120.285 21.5042 120.649 21.661 121.175 21.9734C122.248 22.6616 123.551 23.7557 125.083 25.2572C125.425 25.6526 125.596 25.9347 125.596 26.1022C125.596 26.7072 125.264 27.0091 124.602 27.0091C124.396 27.0091 124.201 26.8839 124.019 26.6334C122.487 25.07 121.048 23.8612 119.7 23.0056C119.31 22.7763 119.117 22.5574 119.117 22.3491C119.119 21.7863 119.438 21.5042 120.079 21.5042ZM120.935 15.3441C121.118 15.3441 121.46 15.5207 121.963 15.8753C123.06 16.5423 124.363 17.6154 125.871 19.0957C126.213 19.5136 126.384 19.8155 126.384 20.0027C126.384 20.5656 126.075 20.8477 125.458 20.8477C125.252 20.8477 125.047 20.7224 124.841 20.472C123.333 18.9086 121.881 17.709 120.488 16.8758C120.122 16.6254 119.939 16.4171 119.939 16.251C119.941 15.6459 120.272 15.3441 120.935 15.3441ZM130.497 16.0005H147.394C149.495 16.0005 150.547 17.0327 150.547 19.0971C150.547 19.805 150.261 20.6091 149.691 21.5055C149.439 21.8179 149.085 21.9748 148.628 21.9748C148.149 21.8917 147.861 21.6505 147.772 21.255C147.772 21.1298 147.817 21.0256 147.909 20.9426C148.159 20.588 148.366 20.2123 148.526 19.8168C148.685 19.3792 148.766 19.0246 148.766 18.753C148.766 17.9199 148.263 17.502 147.258 17.502H130.943C130.029 17.502 129.572 17.9199 129.572 18.753V21.255C129.572 21.7348 129.251 21.9748 128.612 21.9748C128.04 21.9748 127.755 21.7362 127.755 21.255V18.5025C127.755 16.8337 128.668 16.0005 130.497 16.0005ZM146.159 20.8477C146.661 20.8675 146.935 21.1298 146.981 21.6294C146.934 22.0881 146.661 22.3281 146.159 22.3491H139.716V24.7259H146.023C147.758 24.7259 148.627 25.5182 148.627 27.1027V31.6058C148.627 33.1903 147.758 33.9826 146.023 33.9826H139.716V36.4846H149.141C149.666 36.5043 149.951 36.7667 149.997 37.2663C149.95 37.725 149.665 37.9649 149.141 37.986H139.716V40.6133C139.669 41.0931 139.395 41.3528 138.894 41.395C138.253 41.3528 137.922 41.0931 137.9 40.6133V37.986H128.988C128.485 37.9663 128.221 37.725 128.2 37.2663C128.223 36.7653 128.485 36.5043 128.988 36.4846H137.9V33.9826H132.256C130.534 33.9826 129.675 33.1903 129.675 31.6058V27.1027C129.675 25.5182 130.536 24.7259 132.256 24.7259H137.9V22.3491H131.594C131.067 22.3294 130.793 22.0881 130.772 21.6294C130.794 21.1285 131.067 20.8675 131.594 20.8477H137.9V18.8782C137.922 18.3773 138.253 18.1163 138.894 18.0965C139.395 18.1163 139.67 18.3786 139.716 18.8782V20.849H146.159V20.8477ZM131.492 28.6028H137.901V26.2261H132.863C131.949 26.2261 131.492 26.6439 131.492 27.4771V28.6028ZM137.9 32.4811V30.1043H131.49V31.2301C131.49 32.0632 131.947 32.4811 132.862 32.4811H137.9ZM139.716 26.2261V28.6028H146.811V27.4771C146.811 26.6439 146.352 26.2261 145.439 26.2261H139.716ZM145.439 32.4811C146.352 32.4811 146.811 32.0632 146.811 31.2301V30.1043H139.716V32.4811H145.439Z" fill="white"/>
<path d="M187.28 29.9791C187.714 29.9988 187.953 30.2612 188 30.7608C187.953 31.1365 187.714 31.3342 187.28 31.3553H176.725V33.1375H183.613C185.053 33.1375 185.773 33.794 185.773 35.1083V41.8629C185.773 43.2181 185.053 43.8956 183.613 43.8956H161.405C159.918 43.8956 159.177 43.2181 159.177 41.8629V35.1083C159.177 33.7953 159.919 33.1375 161.405 33.1375H167.437V31.4805C167.437 31.4186 167.447 31.3764 167.471 31.3553H157.155C156.696 31.3355 156.457 31.1365 156.435 30.7608C156.457 30.2598 156.696 29.9988 157.155 29.9791H187.28ZM170.727 15.7197C171.365 15.7197 171.687 15.9702 171.687 16.4698C171.687 16.9075 171.366 17.1263 170.727 17.1263H163.564C163.723 17.2713 163.815 17.4387 163.838 17.6272L163.804 17.6588C163.712 17.9924 163.576 18.3153 163.393 18.6277H169.322C169.755 18.6277 169.983 18.8268 170.007 19.2223C169.983 19.6177 169.755 19.8366 169.322 19.8788H166.992C166.944 20.7343 166.889 21.3908 166.821 21.8495H170.317C170.728 21.8693 170.945 22.0881 170.968 22.506C170.945 22.8817 170.728 23.0794 170.317 23.1005H166.925C167.998 23.5593 168.934 24.1432 169.735 24.8511C169.894 24.9961 169.986 25.215 170.01 25.5076C169.986 25.8833 169.758 26.081 169.324 26.1021H168.947C168.146 25.2888 167.233 24.6323 166.205 24.1314C166.158 24.1314 166.137 24.1208 166.137 24.0997C166.021 24.2447 165.919 24.37 165.828 24.4754C165.417 24.9553 164.81 25.3402 164.012 25.6328C163.28 25.9453 162.354 26.1852 161.235 26.3526C160.732 26.3328 160.468 26.0916 160.447 25.6328C160.492 25.2571 160.709 25.0383 161.099 24.9764C161.761 24.8722 162.378 24.7259 162.949 24.5387C163.428 24.3713 163.862 24.1525 164.252 23.8822C164.526 23.6739 164.743 23.4129 164.903 23.1005H161.099C160.664 23.0807 160.447 22.8817 160.447 22.506C160.447 22.0881 160.664 21.8693 161.099 21.8495H165.314V21.8179C165.383 21.255 165.439 20.6091 165.485 19.8788H162.504C162.412 19.9829 162.32 20.0778 162.229 20.1609C161.887 20.4733 161.51 20.7435 161.099 20.9742C161.007 21.0362 160.87 21.0889 160.688 21.1311C160.297 21.0691 160.082 20.8925 160.036 20.5998C160.036 20.3705 160.081 20.1727 160.173 20.0053C160.468 19.8181 160.732 19.6415 160.961 19.4741C161.348 19.1814 161.646 18.9006 161.851 18.6291C162.078 18.2956 162.285 17.9212 162.468 17.5033C162.513 17.3161 162.593 17.1909 162.709 17.1276H160.447C159.601 17.1276 159.178 17.4914 159.178 18.2217V25.9769C159.178 26.727 159.6 27.1027 160.447 27.1027H170.455C171.072 27.1027 171.381 27.3637 171.381 27.8844C171.381 28.2799 171.072 28.4789 170.455 28.4789H159.727C158.288 28.4789 157.568 27.8224 157.568 26.5081V17.7524C157.568 16.3973 158.288 15.7197 159.727 15.7197H170.727ZM160.821 39.3609H184.127V37.7659H177.273C175.833 37.7659 175.113 37.0883 175.113 35.7331V34.5138H169.081C169.081 35.4313 168.738 36.151 168.053 36.6717C167.504 37.1516 166.728 37.5167 165.723 37.7659C164.785 38.0163 163.197 38.2141 160.959 38.3604C160.891 38.3604 160.844 38.3498 160.823 38.3287V39.3609H160.821ZM160.821 36.8589C162.648 36.7548 163.907 36.6295 164.591 36.4832C165.504 36.358 166.201 36.1075 166.682 35.7331C167.183 35.4405 167.436 35.0345 167.436 34.5138H162.191C161.277 34.5138 160.82 34.9198 160.82 35.7331V36.8589H160.821ZM182.756 42.5194C183.669 42.5194 184.127 42.1015 184.127 41.2684V40.6119H160.821V41.2684C160.821 42.1015 161.279 42.5194 162.193 42.5194H182.756ZM175.113 33.1375V31.3553H169.047C169.069 31.4172 169.081 31.4594 169.081 31.4805V33.1375H175.113ZM178.233 15.7197H181.66C183.145 15.7197 183.888 16.3973 183.888 17.7524V18.8782C183.888 19.2737 184.105 19.4727 184.539 19.4727H184.848C185.235 19.4727 185.556 19.4108 185.808 19.2855C185.991 19.1814 186.117 19.0469 186.185 18.8795L186.356 18.3483C186.424 17.8895 186.685 17.6496 187.144 17.6285C187.645 17.6707 187.932 17.9106 188 18.3483C187.908 19.329 187.702 19.9855 187.383 20.319C187.062 20.6315 186.674 20.8081 186.218 20.8503H184.127C182.87 20.8503 182.242 20.2676 182.242 19.0997V17.8487C182.242 17.3688 181.865 17.1289 181.111 17.1289H176.999C176.473 17.1289 176.211 17.3675 176.211 17.8487C176.211 18.4116 176.119 18.8492 175.937 19.1616C175.685 19.5373 175.331 19.8695 174.874 20.1622C174.416 20.4126 173.812 20.6315 173.058 20.8187C172.966 20.8187 172.908 20.8292 172.887 20.8503C172.292 20.8081 171.984 20.5682 171.961 20.1305C171.984 19.7351 172.154 19.4741 172.475 19.3488C172.932 19.2658 173.309 19.1722 173.606 19.0667C173.88 18.9626 174.107 18.8163 174.291 18.6291C174.474 18.4617 174.566 18.202 174.566 17.8474C174.566 16.4289 175.285 15.721 176.725 15.721H178.233V15.7197ZM173.331 21.9734H184.264C185.268 21.9734 185.771 22.3175 185.771 23.0056C185.771 23.2982 185.577 23.6304 185.188 24.0061C183.817 25.2361 182.584 26.1219 181.487 26.6637C182.743 26.9563 184.583 27.2688 187.005 27.6023C187.324 27.7473 187.506 28.0083 187.553 28.384C187.506 28.7386 187.279 28.9363 186.868 28.9785C186.752 28.9785 186.525 28.9587 186.182 28.9166C183.783 28.562 181.693 28.1151 179.911 27.572C179.774 27.5298 179.648 27.4889 179.534 27.4467C177.843 28.0518 175.683 28.5211 173.057 28.8546C172.53 28.8124 172.256 28.5725 172.235 28.1348C172.257 27.7592 172.475 27.5403 172.886 27.4784C174.782 27.2701 176.314 27.0196 177.479 26.7283C177.068 26.5833 176.712 26.4264 176.416 26.259C175.502 25.7581 174.736 25.2071 174.121 24.602C174.029 24.457 173.984 24.3001 173.984 24.1327C174.029 23.7372 174.269 23.5184 174.704 23.4762C174.954 23.4762 175.171 23.612 175.355 23.8822C175.972 24.4253 176.737 24.9144 177.651 25.3521C178.153 25.6025 178.77 25.8411 179.501 26.0718C180.14 25.8424 180.757 25.5511 181.352 25.1965C182.196 24.6758 182.94 24.1327 183.579 23.5698C183.694 23.4657 183.75 23.3932 183.75 23.351C183.75 23.2679 183.556 23.2257 183.167 23.2257H173.331C172.896 23.1836 172.656 22.9871 172.611 22.6312C172.656 22.2344 172.896 22.0156 173.331 21.9734ZM176.724 34.5138V35.3588C176.724 36.0469 177.1 36.3909 177.854 36.3909H184.126V35.7345C184.126 34.9211 183.667 34.5151 182.754 34.5151H176.724V34.5138Z" fill="white"/>
</svg>
