<svg width="240" height="48" viewBox="0 0 240 48" fill="none" xmlns="http://www.w3.org/2000/svg">
<path fill-rule="evenodd" clip-rule="evenodd" d="M22.2618 22.8154V22.8154C21.4883 21.882 21.1253 20.6669 21.2574 19.4538C21.3895 18.2407 22.0052 17.1358 22.9607 16.3971V16.3971L33.0081 8.51791C34.0235 7.72821 35.5864 7.84074 36.3844 8.86142C36.7555 9.33021 36.9245 9.93155 36.8532 10.5289C36.782 11.1263 36.4764 11.6691 36.0058 12.034L22.2618 22.8154Z" fill="url(#paint0_linear)"/>
<path fill-rule="evenodd" clip-rule="evenodd" d="M27.7218 21.1736V21.1736C27.7151 21.1677 27.7049 21.1677 27.6981 21.1736L24.0685 23.976L13.9702 31.7777C12.941 32.5723 12.663 34.123 13.4655 35.1355C13.8303 35.5982 14.3696 35.8984 14.9626 35.9687C15.5556 36.039 16.1526 35.8737 16.6199 35.5097L26.8287 27.6271C28.8379 26.0531 29.2309 23.2136 27.7218 21.1736Z" fill="url(#paint1_linear)"/>
<path fill-rule="evenodd" clip-rule="evenodd" d="M33.5769 35.9846C34.9406 35.9846 36.0462 34.8791 36.0462 33.5154C36.0462 32.1517 34.9406 31.0461 33.5769 31.0461C32.2132 31.0461 31.1077 32.1517 31.1077 33.5154C31.1077 34.8791 32.2132 35.9846 33.5769 35.9846Z" fill="#0D91D3"/>
<path fill-rule="evenodd" clip-rule="evenodd" d="M16.2923 12.9385C17.656 12.9385 18.7615 11.8329 18.7615 10.4692C18.7615 9.10551 17.656 8 16.2923 8C14.9286 8 13.8231 9.10551 13.8231 10.4692C13.8231 11.8329 14.9286 12.9385 16.2923 12.9385Z" fill="#0D91D3"/>
<path fill-rule="evenodd" clip-rule="evenodd" d="M154.902 24.3851C154.619 25.0441 154.238 25.62 153.76 26.1112C153.282 26.6029 152.722 26.9944 152.08 27.2841C151.439 27.5752 150.76 27.7198 150.042 27.7198C149.325 27.7198 148.645 27.5804 148.004 27.3007C147.363 27.0219 146.803 26.6365 146.325 26.1444C145.846 25.6533 145.465 25.0777 145.183 24.4187C144.9 23.7593 144.759 23.061 144.759 22.3238V22.2901C144.759 21.5524 144.894 20.8541 145.166 20.1951C145.438 19.5361 145.813 18.9606 146.292 18.4685C146.77 17.9778 147.33 17.5862 147.971 17.2956C148.612 17.0055 149.303 16.8599 150.042 16.8599C150.76 16.8599 151.439 17.0055 152.08 17.2956C152.722 17.5862 153.282 17.9778 153.76 18.4685C154.238 18.9606 154.619 19.5361 154.902 20.1951C155.184 20.8541 155.326 21.5524 155.326 22.2901C155.326 23.0273 155.184 23.7261 154.902 24.3851M156.141 16.0223C155.358 15.2178 154.445 14.5806 153.402 14.1113C152.358 13.6424 151.238 13.4077 150.042 13.4077C148.846 13.4077 147.721 13.6424 146.666 14.1113C145.612 14.5806 144.694 15.2178 143.911 16.0223C143.128 16.8264 142.514 17.765 142.068 18.8374C141.622 19.9103 141.4 21.0613 141.4 22.2902V22.3238V41.3119C141.4 42.2654 142.152 43.0385 143.08 43.0385C144.007 43.0385 144.759 42.2654 144.759 41.3119V29.2953C145.498 29.8769 146.313 30.3345 147.205 30.6701C148.096 31.0048 149.042 31.1726 150.042 31.1726C151.238 31.1726 152.358 30.938 153.402 30.4686C154.445 29.9997 155.358 29.363 156.141 28.5581C156.924 27.7535 157.543 26.8153 158 25.7425C158.456 24.6701 158.685 23.5195 158.685 22.2902C158.685 21.0613 158.456 19.9103 158 18.8374C157.543 17.765 156.924 16.8264 156.141 16.0223" fill="white"/>
<path fill-rule="evenodd" clip-rule="evenodd" d="M65.6542 27.1798C65.5607 27.0395 65.4403 27.0109 65.2927 27.0953C64.3945 27.6838 63.4096 27.9776 62.3378 27.9763C60.6901 27.9741 59.3045 27.3262 58.1807 26.0328C57.0565 24.7389 56.5762 23.2145 56.739 21.4588C56.8745 20.1108 57.398 18.9387 58.3108 17.9426C59.2227 16.9464 60.3151 16.365 61.5882 16.1983C62.9276 16.0175 64.1668 16.2858 65.3048 17.0036C65.4382 17.1021 65.5523 17.081 65.6463 16.9407L67.2567 14.4567C67.3641 14.2882 67.3376 14.155 67.1765 14.0564C65.4902 12.9305 63.642 12.4507 61.6327 12.6165C59.3947 12.7964 57.4781 13.749 55.882 15.4744C54.2854 17.2002 53.4393 19.2426 53.3428 21.6022C53.2191 24.3127 54.0472 26.6454 55.8266 28.5999C57.6056 30.5403 59.7748 31.5123 62.3336 31.5154C64.0887 31.5176 65.7033 31.0281 67.1782 30.0473C67.3389 29.9488 67.3662 29.8225 67.2588 29.6677L65.6542 27.1798Z" fill="white"/>
<path fill-rule="evenodd" clip-rule="evenodd" d="M81.081 12.8365C80.6789 12.7664 80.2629 12.7318 79.833 12.7318C78.391 12.7318 77.0527 13.1235 75.8182 13.9068V12.8575C75.8182 12.6757 75.7284 12.5846 75.5482 12.5846H72.5321C72.3514 12.5846 72.2615 12.6757 72.2615 12.8575V31.2424C72.2615 31.4242 72.3514 31.5154 72.5321 31.5154H75.5482C75.7284 31.5154 75.8182 31.4242 75.8182 31.2424V19.8675C75.9433 18.8458 76.3871 17.9928 77.1496 17.3071C77.9125 16.6074 78.807 16.2578 79.833 16.2578C80.0271 16.2578 80.2143 16.2714 80.3945 16.2994C80.5608 16.3275 80.665 16.2578 80.7067 16.0896L81.3098 13.1515C81.3376 12.9697 81.2612 12.8646 81.081 12.8365" fill="white"/>
<path fill-rule="evenodd" clip-rule="evenodd" d="M98.4886 26.2298C97.3886 27.3951 96.0542 27.9776 94.4846 27.9776C92.9289 27.9776 91.6008 27.3951 90.5008 26.2298C89.3877 25.0785 88.8312 23.6819 88.8312 22.0392C88.8312 20.411 89.3877 19.0214 90.5008 17.8702C91.6008 16.7048 92.9289 16.1224 94.4846 16.1224C96.0542 16.1224 97.3886 16.7048 98.4886 17.8702C99.6021 19.0214 100.159 20.411 100.159 22.0392C100.159 23.6819 99.6021 25.0785 98.4886 26.2298M94.4846 12.5846C91.9897 12.5846 89.8573 13.5042 88.0865 15.343C86.3162 17.1963 85.4308 19.4281 85.4308 22.0392C85.4308 24.6644 86.3162 26.9037 88.0865 28.757C89.8573 30.5957 91.9897 31.5154 94.4846 31.5154C96.9929 31.5154 99.1258 30.5957 100.883 28.757C102.653 26.9037 103.538 24.6644 103.538 22.0392C103.538 19.4281 102.653 17.1963 100.883 15.343C99.1258 13.5042 96.9929 12.5846 94.4846 12.5846" fill="white"/>
<path fill-rule="evenodd" clip-rule="evenodd" d="M119.937 25.1981L119.895 24.9021C119.728 24.0853 119.365 23.3527 118.807 22.7047C118.389 22.198 117.838 21.7331 117.154 21.3105C116.708 21.0146 116.157 20.7186 115.501 20.4231L114.769 20.106L114.392 19.9159L114.141 19.8105L113.973 19.7258C113.415 19.4863 112.976 19.275 112.655 19.092C112.279 18.8666 111.992 18.6483 111.797 18.437L111.734 18.3523L111.672 18.2681L111.588 18.1199L111.546 18.0568L111.525 17.9933L111.504 17.9086V17.8875V17.8663H111.483V17.8456L111.462 17.655V17.5496V17.4438V17.3383L111.483 17.2325L111.504 17.1271L111.525 17.0424C111.581 16.8175 111.678 16.634 111.818 16.4933C111.958 16.3521 112.146 16.2256 112.383 16.1126C112.606 16.0284 112.892 15.9578 113.241 15.9014H113.325L113.429 15.8806H113.701L113.932 15.8595L114.162 15.8806C114.371 15.8806 114.636 15.9084 114.957 15.9649C115.375 16.0637 115.78 16.2114 116.17 16.4086C116.254 16.465 116.366 16.5352 116.505 16.6199C116.603 16.6904 116.708 16.7681 116.819 16.8523C116.945 16.9511 117.063 16.944 117.175 16.8311L119.1 14.9509C119.239 14.8102 119.232 14.6761 119.079 14.5495L118.87 14.3383C118.717 14.2112 118.549 14.0917 118.368 13.9788C118.158 13.824 117.928 13.6833 117.677 13.5563C117.022 13.2043 116.338 12.9436 115.626 12.7747C115.138 12.6759 114.699 12.6194 114.308 12.6058L113.953 12.5846L113.596 12.6058C113.471 12.6058 113.22 12.6194 112.843 12.6477C112.23 12.7324 111.678 12.8664 111.19 13.0495C110.507 13.3172 109.935 13.6974 109.474 14.1901C108.93 14.7255 108.554 15.3875 108.344 16.1762C108.275 16.4156 108.233 16.5987 108.219 16.7257C108.191 16.937 108.177 17.12 108.177 17.2748L108.156 17.5496V17.5708V17.592V17.6762V17.6974V17.7397L108.177 17.8456V18.0357C108.191 18.1481 108.212 18.2681 108.24 18.3947L108.261 18.5636L108.303 18.7325L108.386 19.0497C108.414 19.1339 108.449 19.2327 108.491 19.3452L108.637 19.6411C108.707 19.7959 108.812 19.9724 108.951 20.1695L109.119 20.4231C109.188 20.5215 109.251 20.5991 109.307 20.6556C109.739 21.1346 110.298 21.5778 110.981 21.9867C111.4 22.2399 111.944 22.5217 112.613 22.8318L112.801 22.8948V22.916L112.864 22.9372L112.948 22.9795L113.325 23.1484L114.099 23.5075C115.145 24.0006 115.85 24.4654 116.212 24.9021C116.394 25.1275 116.505 25.3599 116.547 25.5994L116.568 25.7048C116.582 25.7331 116.582 25.7613 116.568 25.7895L116.589 25.8954V25.9373V25.9796L116.568 26.1697V26.212V26.2756V26.3386L116.547 26.4021L116.526 26.4868C116.415 26.9799 116.129 27.3531 115.668 27.6062C115.445 27.7192 115.159 27.818 114.81 27.9022C114.42 27.9587 114.092 27.9869 113.827 27.9869L113.638 28.008L113.346 27.9869C113.248 27.9869 113.157 27.9798 113.074 27.9657H112.99L112.906 27.9445C112.864 27.9445 112.801 27.9375 112.718 27.9234L112.613 27.9022L112.509 27.881L112.32 27.8391L112.132 27.7756C111.713 27.6627 111.309 27.4938 110.918 27.2684C110.834 27.2119 110.73 27.1418 110.604 27.0571C110.507 26.987 110.402 26.9023 110.291 26.804C110.165 26.7193 110.046 26.7263 109.935 26.8247L107.759 28.9166C107.619 29.0573 107.619 29.191 107.759 29.318C107.912 29.4728 108.086 29.6206 108.282 29.7617C108.561 29.973 108.861 30.1701 109.181 30.3532C109.809 30.7197 110.472 30.994 111.169 31.1771C111.644 31.3041 112.09 31.3954 112.509 31.4519C112.662 31.466 112.787 31.4801 112.885 31.4942H113.22L113.513 31.5154H113.555H113.659H113.743H113.932C114.392 31.5012 114.922 31.4377 115.522 31.3253C116.178 31.1705 116.764 30.9587 117.28 30.6915C117.949 30.3532 118.507 29.8883 118.954 29.2968C119.428 28.6771 119.742 27.9728 119.895 27.1837L119.937 26.867L119.979 26.5499V26.4233L120 26.381V26.3179V26.1274V25.9373V25.7895L119.979 25.4936C119.979 25.4234 119.965 25.3246 119.937 25.1981" fill="white"/>
<path fill-rule="evenodd" clip-rule="evenodd" d="M137.222 25.1981L137.18 24.9021C137.012 24.0853 136.65 23.3527 136.092 22.7047C135.673 22.198 135.122 21.7331 134.439 21.3105C133.992 21.0146 133.441 20.7186 132.786 20.4231L132.053 20.106L131.677 19.9159L131.425 19.8105L131.258 19.7258C130.7 19.4863 130.26 19.275 129.94 19.092C129.563 18.8666 129.277 18.6483 129.082 18.437L129.019 18.3523L128.956 18.2681L128.873 18.1199L128.831 18.0568L128.81 17.9933L128.789 17.9086V17.8875V17.8663H128.768V17.8456L128.747 17.655V17.5496V17.4438V17.3383L128.768 17.2325L128.789 17.1271L128.81 17.0424C128.866 16.8175 128.963 16.634 129.103 16.4933C129.242 16.3521 129.43 16.2256 129.668 16.1126C129.891 16.0284 130.177 15.9578 130.526 15.9014H130.609L130.714 15.8806H130.986L131.216 15.8595L131.446 15.8806C131.656 15.8806 131.921 15.9084 132.241 15.9649C132.66 16.0637 133.064 16.2114 133.455 16.4086C133.539 16.465 133.651 16.5352 133.79 16.6199C133.888 16.6904 133.992 16.7681 134.104 16.8523C134.229 16.9511 134.348 16.944 134.46 16.8311L136.385 14.9509C136.524 14.8102 136.517 14.6761 136.364 14.5495L136.155 14.3383C136.001 14.2112 135.834 14.0917 135.652 13.9788C135.443 13.824 135.213 13.6833 134.962 13.5563C134.306 13.2043 133.623 12.9436 132.911 12.7747C132.423 12.6759 131.983 12.6194 131.593 12.6058L131.237 12.5846L130.881 12.6058C130.756 12.6058 130.505 12.6194 130.128 12.6477C129.514 12.7324 128.963 12.8664 128.475 13.0495C127.791 13.3172 127.22 13.6974 126.759 14.1901C126.215 14.7255 125.838 15.3875 125.629 16.1762C125.559 16.4156 125.518 16.5987 125.503 16.7257C125.476 16.937 125.462 17.12 125.462 17.2748L125.441 17.5496V17.5708V17.592V17.6762V17.6974V17.7397L125.462 17.8456V18.0357C125.476 18.1481 125.497 18.2681 125.524 18.3947L125.546 18.5636L125.587 18.7325L125.671 19.0497C125.699 19.1339 125.734 19.2327 125.775 19.3452L125.922 19.6411C125.992 19.7959 126.097 19.9724 126.236 20.1695L126.403 20.4231C126.473 20.5215 126.536 20.5991 126.592 20.6556C127.024 21.1346 127.582 21.5778 128.266 21.9867C128.684 22.2399 129.228 22.5217 129.898 22.8318L130.086 22.8948V22.916L130.149 22.9372L130.232 22.9795L130.609 23.1484L131.383 23.5075C132.43 24.0006 133.134 24.4654 133.497 24.9021C133.679 25.1275 133.79 25.3599 133.832 25.5994L133.853 25.7048C133.867 25.7331 133.867 25.7613 133.853 25.7895L133.873 25.8954V25.9373V25.9796L133.853 26.1697V26.212V26.2756V26.3386L133.832 26.4021L133.811 26.4868C133.7 26.9799 133.413 27.3531 132.953 27.6062C132.73 27.7192 132.444 27.818 132.095 27.9022C131.705 27.9587 131.376 27.9869 131.112 27.9869L130.923 28.008L130.63 27.9869C130.533 27.9869 130.442 27.9798 130.358 27.9657H130.274L130.191 27.9445C130.149 27.9445 130.086 27.9375 130.003 27.9234L129.898 27.9022L129.793 27.881L129.605 27.8391L129.416 27.7756C128.998 27.6627 128.593 27.4938 128.203 27.2684C128.119 27.2119 128.015 27.1418 127.889 27.0571C127.791 26.987 127.687 26.9023 127.575 26.804C127.449 26.7193 127.331 26.7263 127.22 26.8247L125.043 28.9166C124.904 29.0573 124.904 29.191 125.043 29.318C125.197 29.4728 125.371 29.6206 125.566 29.7617C125.845 29.973 126.145 30.1701 126.466 30.3532C127.094 30.7197 127.756 30.994 128.454 31.1771C128.928 31.3041 129.375 31.3954 129.793 31.4519C129.947 31.466 130.072 31.4801 130.17 31.4942H130.505L130.798 31.5154H130.84H130.944H131.028H131.216C131.677 31.5012 132.207 31.4377 132.807 31.3253C133.462 31.1705 134.048 30.9587 134.564 30.6915C135.234 30.3532 135.792 29.8883 136.238 29.2968C136.712 28.6771 137.026 27.9728 137.18 27.1837L137.222 26.867L137.264 26.5499V26.4233L137.285 26.381V26.3179V26.1274V25.9373V25.7895L137.264 25.4936C137.264 25.4234 137.25 25.3246 137.222 25.1981" fill="white"/>
<path fill-rule="evenodd" clip-rule="evenodd" d="M175.858 26.2298C174.758 27.3951 173.423 27.9776 171.854 27.9776C170.298 27.9776 168.97 27.3951 167.87 26.2298C166.757 25.0785 166.2 23.6819 166.2 22.0392C166.2 20.411 166.757 19.0214 167.87 17.8702C168.97 16.7048 170.298 16.1224 171.854 16.1224C173.423 16.1224 174.758 16.7048 175.858 17.8702C176.971 19.0214 177.528 20.411 177.528 22.0392C177.528 23.6819 176.971 25.0785 175.858 26.2298M171.854 12.5846C169.359 12.5846 167.227 13.5042 165.456 15.343C163.685 17.1963 162.8 19.4281 162.8 22.0392C162.8 24.6644 163.685 26.9037 165.456 28.757C167.227 30.5957 169.359 31.5154 171.854 31.5154C174.362 31.5154 176.495 30.5957 178.252 28.757C180.023 26.9037 180.908 24.6644 180.908 22.0392C180.908 19.4281 180.023 17.1963 178.252 15.343C176.495 13.5042 174.362 12.5846 171.854 12.5846" fill="white"/>
<path fill-rule="evenodd" clip-rule="evenodd" d="M189.56 6C188.992 6 188.509 6.19898 188.111 6.59694C187.698 6.9949 187.492 7.47833 187.492 8.04723C187.492 8.61568 187.698 9.10624 188.111 9.51844C188.509 9.9164 188.992 10.1154 189.56 10.1154C190.129 10.1154 190.612 9.9164 191.01 9.51844C191.409 9.10624 191.608 8.61568 191.608 8.04723C191.608 7.47833 191.409 6.9949 191.01 6.59694C190.612 6.19898 190.129 6 189.56 6" fill="white"/>
<path fill-rule="evenodd" clip-rule="evenodd" d="M189.138 12.5846C188.229 12.5846 187.492 13.3772 187.492 14.355V29.7445C187.492 30.7223 188.229 31.5154 189.138 31.5154C190.047 31.5154 190.785 30.7223 190.785 29.7445V14.355C190.785 13.3772 190.047 12.5846 189.138 12.5846" fill="white"/>
<path fill-rule="evenodd" clip-rule="evenodd" d="M212.142 25.3795V23.2856L212.121 22.7203V22.1337V20.9403V20.3331C212.121 20.0537 212.1 19.7814 212.058 19.516C212.002 18.9718 211.882 18.4411 211.7 17.9248C211.335 16.8639 210.751 15.9284 209.95 15.1188C209.178 14.3087 208.25 13.7085 207.168 13.3177C206.662 13.1363 206.136 13.0034 205.588 12.9199L205.377 12.8989C205.307 12.8849 205.237 12.8779 205.167 12.8779H205.061L204.956 12.8569H204.766H204.618H204.576H204.492H204.387H204.197L204.007 12.8779C202.981 12.9619 202.019 13.2338 201.12 13.695C200.811 13.8484 200.494 14.0438 200.172 14.2807V12.8569C200.172 12.7066 200.048 12.5846 199.897 12.5846H196.82C196.669 12.5846 196.546 12.7066 196.546 12.8569V30.6118C196.546 31.1106 196.953 31.5154 197.455 31.5154H199.262C199.764 31.5154 200.172 31.1106 200.172 30.6118V20.626V20.3746C200.185 20.3051 200.192 20.2072 200.192 20.0817L200.213 19.9768V19.9143V19.8304C200.227 19.7464 200.256 19.628 200.298 19.4745C200.368 19.1532 200.48 18.8393 200.635 18.532C200.817 18.1412 201.063 17.7919 201.373 17.485C202.145 16.647 203.094 16.2077 204.218 16.1657L204.323 16.1447H204.45H204.492H204.534L204.681 16.1657H204.808H204.85H204.913C204.928 16.1657 204.956 16.1727 204.998 16.1867L205.124 16.2077C205.433 16.2492 205.721 16.3262 205.988 16.4376C206.593 16.6615 207.105 16.9963 207.527 17.4431C207.963 17.9038 208.279 18.4271 208.475 19.0133C208.559 19.2927 208.616 19.586 208.644 19.8933L208.665 20.3331V20.9403V22.1337V22.7203V23.2856C208.651 24.2211 208.644 24.9188 208.644 25.3795C208.63 27.1106 208.623 28.5554 208.623 29.7143L208.602 31.2011C208.602 31.3825 208.693 31.4734 208.876 31.4734H211.911C212.093 31.4734 212.185 31.3825 212.185 31.2011L212.164 29.7143C212.164 28.5554 212.156 27.1106 212.142 25.3795" fill="white"/>
<path fill-rule="evenodd" clip-rule="evenodd" d="M226.923 30.1157L225.229 27.7337C225.136 27.5945 225.023 27.5666 224.89 27.6504C224.319 28.0264 223.82 28.1031 223.395 27.8802C222.89 27.6155 222.638 27.0441 222.638 26.1669V16.2001H225.369C225.511 16.2001 225.627 16.0784 225.627 15.9284V12.9615C225.627 12.8114 225.511 12.6897 225.369 12.6897H222.638V8.74098C222.638 8.59093 222.522 8.46924 222.379 8.46924H219.529C219.356 8.46924 219.269 8.55996 219.269 8.74098L219.285 11.8693C219.288 12.322 218.939 12.6897 218.507 12.6897H216.559C216.416 12.6897 216.3 12.8114 216.3 12.9615V15.9284C216.3 16.0784 216.416 16.2001 216.559 16.2001H219.289V26.1669C219.289 27.2534 219.515 28.2283 219.967 29.092C220.432 29.9556 221.07 30.5964 221.88 31.0142C222.519 31.3488 223.189 31.5154 223.894 31.5154C224.93 31.5154 225.92 31.1743 226.863 30.4917C227.023 30.3944 227.043 30.2692 226.923 30.1157" fill="white"/>
<defs>
<linearGradient id="paint0_linear" x1="36.8698" y1="7.99719" x2="21.2289" y2="7.99719" gradientUnits="userSpaceOnUse">
<stop offset="0.36" stop-color="#1E9CD7"/>
<stop offset="0.87" stop-color="#0075BE"/>
<stop offset="0.99" stop-color="#005B97"/>
</linearGradient>
<linearGradient id="paint1_linear" x1="13.0002" y1="35.9837" x2="28.6386" y2="35.9837" gradientUnits="userSpaceOnUse">
<stop offset="0.36" stop-color="#1E9CD7"/>
<stop offset="0.87" stop-color="#0075BE"/>
<stop offset="0.99" stop-color="#005B97"/>
</linearGradient>
</defs>
</svg>
