<svg width="206" height="60" viewBox="0 0 206 60" fill="none" xmlns="http://www.w3.org/2000/svg">
<g clip-path="url(#clip0)">
<path d="M83.2264 6.03857C81.1729 6.15152 57.091 6.03857 57.091 6.03857L55.4856 16.4668L21.8083 16.5045L18 21.6998H54.2908L52.7974 32.2033H58.0991L59.6672 21.5868L80.0155 21.5115C80.0155 21.5115 83.4878 20.8715 83.9358 17.8597C84.1972 15.5256 85.3172 10.0292 85.3172 10.0292C85.3172 10.0292 86.0266 6.90446 83.2264 6.03857ZM79.7168 12.5515C79.7168 12.5515 79.6048 14.4715 79.5301 15.0739C79.4181 16.4668 77.962 16.5798 77.962 16.5798H60.5633L61.5341 11.2339C61.5341 11.2339 77.3273 11.2715 79.0074 11.2339C79.9408 11.2715 79.7168 12.5515 79.7168 12.5515Z" fill="white"/>
<path d="M88.3415 6.22589L84.7199 26.4424C84.7199 26.4424 83.0397 32.1647 86.7734 32.2024C90.507 32.2777 98.7957 32.2024 98.7957 32.2024C98.7957 32.2024 101.783 31.7506 102.455 28.3247C103.127 24.8612 106.562 6.03766 106.562 6.03766H101.073L97.7502 25.5388C97.7502 25.5388 97.6009 27.0071 96.5555 27.0071C95.5101 27.0071 90.507 27.0447 90.507 27.0447C90.507 27.0447 89.947 26.9694 90.171 25.3882C90.4697 22.9412 93.7179 6.26354 93.7179 6.26354H88.3415V6.22589Z" fill="white"/>
<path d="M108.951 6.03762L105.068 28.287C105.068 28.287 104.62 32.0141 107.234 32.0141C109.81 32.0141 136.505 32.0141 136.505 32.0141C136.505 32.0141 139.305 31.9388 140.09 29.2659C140.65 26.6306 141.434 21.6611 141.434 21.6611H145.354L144.271 29.1906C144.271 29.1906 143.748 32.0517 146.026 32.0517C147.221 32.0141 187.805 32.0517 187.805 32.0517L188.552 26.8941L149.946 26.9694L150.581 21.5482L158.907 21.6235L159.616 16.4282H151.402L151.962 12.4376C151.962 12.4376 152 10.8941 153.381 11.0447C154.763 11.1953 187.88 11.12 187.88 11.12L189 6.03762H151.589C151.589 6.03762 148.602 5.39762 147.706 9.23762C147.557 10.5929 146.549 16.3529 146.549 16.3529L127.955 16.3906C127.955 16.3906 127.022 16.7294 127.134 14.5835C127.209 13.0023 127.171 11.1953 128.702 11.12C130.233 11.0447 143.45 11.1953 143.45 11.1953L144.346 5.99997H128.403H126.126C126.126 5.99997 123.139 6.37644 122.803 9.42586C122.616 10.7435 121.011 21.5482 121.011 21.5482L135.535 21.7364C135.535 21.7364 136.132 21.5482 136.132 22.7906C136.057 23.8447 135.46 26.2917 135.46 26.2917C135.46 26.2917 135.348 27.1576 134.788 27.0447C133.257 27.0447 111.341 26.9694 111.341 26.9694C111.341 26.9694 110.631 27.3082 110.669 25.727C111.042 23.6564 114.29 6.07527 114.29 6.07527H108.951V6.03762Z" fill="white"/>
<path d="M99.9531 44.6635H102.492L100.55 54H87.5948C87.5948 54 86.6614 54 86.7734 52.2306C86.9974 50.4988 89.0135 40.3718 89.0135 40.3718C89.0135 40.3718 89.2376 38.5647 90.8804 38.5647C92.5232 38.5647 103.575 38.5647 103.575 38.5647L103.164 41.3882H92.0378C92.0378 41.3882 91.067 41.3129 90.9924 42.0659C90.9177 42.8188 89.5363 50.4988 89.5363 50.4988C89.5363 50.4988 89.3869 50.9506 89.8349 50.9882C90.283 51.0259 98.9823 51.0635 98.9823 51.0635L99.9531 44.6635Z" fill="white"/>
<path d="M104.769 38.6024H107.308L106.226 44.5506C106.226 44.5506 106.151 44.9271 106.562 45.0024C106.972 45.0024 115.037 45.0024 115.037 45.0024C115.037 45.0024 115.56 44.9647 115.746 44.1741C115.896 43.3835 116.568 38.6024 116.568 38.6024H119.069L117.8 46.0565C117.8 46.0565 117.464 47.6753 115.821 47.6753C114.215 47.6376 111.602 47.6753 111.602 47.6753L110.37 54.0376H107.57L109.026 47.6376L104.023 47.6C104.023 47.6 103.351 47.4494 103.537 45.7929C103.724 44.1365 104.769 38.6024 104.769 38.6024Z" fill="white"/>
<path d="M120.451 54H117.688L120.264 40.1082C120.264 40.1082 120.488 38.3011 122.355 38.3011C124.222 38.3011 137.103 38.5647 137.103 38.5647C137.103 38.5647 138.857 38.7529 138.633 40.3341C138.335 41.84 136.431 54 136.431 54H133.444L135.758 42.3294C135.758 42.3294 136.02 41.2753 135.609 41.1623C135.124 41.1623 130.83 41.1623 130.83 41.1623L128.291 54H125.454L127.918 41.9906C127.918 41.9906 127.918 41.1247 127.395 41.1247C126.872 41.1247 123.064 41.1247 123.064 41.1247L120.451 54Z" fill="white"/>
</g>
<defs>
<clipPath id="clip0">
<rect width="171" height="48" fill="white" transform="translate(18 6)"/>
</clipPath>
</defs>
</svg>
