<svg width="206" height="60" viewBox="0 0 206 60" fill="none" xmlns="http://www.w3.org/2000/svg">
<path fill-rule="evenodd" clip-rule="evenodd" d="M52.2959 30.3739C52.2959 38.4027 65.4687 46.4785 82.1557 50.8892C71.9774 49.8171 44 42.8619 44 30.3739C44 21.8357 62.8002 12.9594 75.4039 9.20062C64.083 14.3114 52.2947 22.0022 52.2959 30.3739Z" fill="white"/>
<mask id="mask0" mask-type="alpha" maskUnits="userSpaceOnUse" x="44" y="8" width="39" height="43">
<path fill-rule="evenodd" clip-rule="evenodd" d="M44 29.9826C44 42.636 72.3379 49.6831 82.6475 50.7691C65.7454 46.3004 52.4028 38.1178 52.4028 29.9826C52.4013 21.5004 64.3418 13.708 75.8086 8.52966C63.0425 12.3382 44 21.3318 44 29.9826Z" fill="white"/>
</mask>
<g mask="url(#mask0)">
<path fill-rule="evenodd" clip-rule="evenodd" d="M44 50.7694H82.6475V8.52966H44V50.7694Z" fill="white"/>
</g>
<mask id="mask1" mask-type="alpha" maskUnits="userSpaceOnUse" x="56" y="3" width="58" height="54">
<path fill-rule="evenodd" clip-rule="evenodd" d="M56.295 3H113.759V56.5419H56.295V3Z" fill="white"/>
</mask>
<g mask="url(#mask1)">
<path fill-rule="evenodd" clip-rule="evenodd" d="M56.295 29.9808C56.295 42.4028 86.9057 51.9407 113.759 56.5419C85.971 48.6625 64.7827 39.819 64.7827 29.9808C64.7827 19.3783 77.7794 9.91115 93.6709 2.99994C93.6709 2.99994 56.2953 13.8987 56.2953 29.9808H56.295Z" fill="white"/>
</g>
<mask id="mask2" mask-type="alpha" maskUnits="userSpaceOnUse" x="56" y="3" width="58" height="54">
<path fill-rule="evenodd" clip-rule="evenodd" d="M56.2952 29.9806H56.2949C56.2949 42.4028 86.9057 51.9411 113.759 56.5419C85.971 48.6626 64.7827 39.8191 64.7827 29.9806C64.7827 19.3784 77.7794 9.91121 93.6709 3C93.6709 3 56.2952 13.8988 56.2952 29.9806Z" fill="white"/>
</mask>
<g mask="url(#mask2)">
<path fill-rule="evenodd" clip-rule="evenodd" d="M56.2949 56.5416H113.759V3H56.2949V56.5416Z" fill="white"/>
</g>
<path fill-rule="evenodd" clip-rule="evenodd" d="M153.704 30.3739C153.704 38.4027 140.531 46.4785 123.844 50.8892C134.022 49.8171 162 42.8619 162 30.3739C162 21.8357 143.2 12.9594 130.596 9.20062C141.916 14.3114 153.705 22.0022 153.704 30.3739Z" fill="white"/>
<mask id="mask3" mask-type="alpha" maskUnits="userSpaceOnUse" x="123" y="8" width="39" height="43">
<path fill-rule="evenodd" clip-rule="evenodd" d="M153.538 29.9826C153.538 38.1178 140.195 46.3004 123.293 50.7691C133.601 49.6831 161.94 42.636 161.94 29.9826C161.94 21.3318 142.898 12.3382 130.131 8.52966C141.598 13.708 153.538 21.5004 153.538 29.9826Z" fill="white"/>
</mask>
<g mask="url(#mask3)">
<path fill-rule="evenodd" clip-rule="evenodd" d="M123.293 50.7694H161.94V8.52966H123.293V50.7694Z" fill="white"/>
</g>
<mask id="mask4" mask-type="alpha" maskUnits="userSpaceOnUse" x="92" y="3" width="58" height="54">
<path fill-rule="evenodd" clip-rule="evenodd" d="M92.8665 3H149.931V56.5419H92.8665V3Z" fill="white"/>
</mask>
<g mask="url(#mask4)">
<path fill-rule="evenodd" clip-rule="evenodd" d="M149.931 29.9808C149.931 42.4028 119.533 51.9407 92.8665 56.5419C120.462 48.6625 141.503 39.819 141.503 29.9808C141.503 19.3783 128.596 9.91115 112.815 2.99994C112.815 2.99994 149.931 13.8987 149.931 29.9808H149.931Z" fill="white"/>
</g>
<mask id="mask5" mask-type="alpha" maskUnits="userSpaceOnUse" x="92" y="3" width="58" height="54">
<path fill-rule="evenodd" clip-rule="evenodd" d="M112.815 3C128.596 9.91121 141.503 19.3784 141.503 29.9806C141.503 39.8191 120.462 48.6626 92.8665 56.5419C119.533 51.9411 149.931 42.4028 149.931 29.9806H149.931C149.931 13.8988 112.815 3 112.815 3Z" fill="white"/>
</mask>
<g mask="url(#mask5)">
<path fill-rule="evenodd" clip-rule="evenodd" d="M92.8665 56.5416H149.931V3H92.8665V56.5416Z" fill="white"/>
</g>
<path fill-rule="evenodd" clip-rule="evenodd" d="M128.642 28.6426C128.348 28.6968 128.057 28.7044 127.795 28.7044H127.378C127.132 28.7044 127.01 28.5765 127.01 28.2753V23.6226C127.01 23.1628 127.408 23.1377 128.309 23.1377C130.128 23.1377 130.973 24.1895 130.973 25.8259C130.973 27.282 130.628 28.2814 128.642 28.6426ZM131.482 23.2839C130.679 22.8042 129.439 22.6261 128.015 22.6261L123.883 22.6273V23.0414L124.298 23.1034C125.043 23.2131 125.129 23.503 125.129 24.9619V31.4614C125.129 32.92 125.043 33.0932 124.298 33.283L123.883 33.3819V33.799H128.256V33.3819L127.84 33.283C127.095 33.0935 127.009 32.9203 127.009 31.4614V29.6784C127.009 29.3771 127.131 29.2493 127.378 29.2493C127.54 29.2493 128.199 29.2525 128.606 29.2297C129.775 29.1615 130.511 28.9378 131.256 28.5602C132.031 28.1668 133.03 27.3425 133.03 25.8087C133.03 24.6487 132.292 23.7686 131.482 23.2839ZM114.801 24.708C114.838 24.6101 114.896 24.6101 114.931 24.7092L116.22 28.3809C116.298 28.5996 116.166 28.7757 115.929 28.7757H113.706C113.468 28.7757 113.341 28.6005 113.423 28.3844C114.025 26.7777 114.609 25.2228 114.801 24.708ZM119.383 31.5538L116.25 22.6273H114.92C114.92 22.6273 111.317 31.7261 111.015 32.4968C110.901 32.7834 110.717 33.1078 110.188 33.2342C109.826 33.321 109.41 33.3816 109.41 33.3816V33.7987H112.918V33.3816L112.523 33.3371C111.929 33.271 111.666 33.2839 111.984 32.3628C112.098 32.0323 112.805 30.0349 112.885 29.8167C112.966 29.6 113.225 29.4239 113.463 29.4239H116.156C116.393 29.4239 116.648 29.6006 116.724 29.8185L117.788 32.849C117.864 33.0666 117.736 33.2649 117.5 33.2915L116.692 33.3819V33.799H121.004V33.3819C121.004 33.3819 120.972 33.3766 120.491 33.283C120.009 33.1891 119.885 32.9885 119.383 31.5538ZM89.3567 31.4611C89.3567 32.9197 89.2703 33.0929 88.5255 33.2827L88.1099 33.3816V33.7987H92.6124V33.3816L92.1962 33.2827C91.4508 33.0932 91.3647 32.92 91.3647 31.4611V24.9616C91.3647 23.503 91.4508 23.2128 92.1962 23.1031L92.6124 23.0435V22.627H88.1099V23.0411L88.5255 23.1031C89.2703 23.2128 89.3567 23.5027 89.3567 24.9616V31.4611ZM76.8004 29.1687C76.8004 28.8686 76.9218 28.7405 77.1678 28.7405H77.7201C78.0472 28.7405 78.1595 28.9105 78.4155 29.2799C78.9467 30.0366 79.6508 31.1977 80.0998 31.8143C81.3236 33.5146 82.645 33.9317 84.1173 33.9317C84.448 33.9317 84.7151 33.8919 84.8777 33.8509V33.6047C84.4046 33.5722 83.9595 33.3979 83.6698 33.1478C82.4921 32.177 81.4462 30.6622 80.0624 28.4846C79.9724 28.3617 80.0061 28.3483 80.1407 28.3091C81.0905 28.0301 82.5896 27.2734 82.5896 25.4778C82.5896 24.063 81.7308 23.4128 80.8243 23.0083C80.0064 22.6441 79.0075 22.6274 77.9457 22.6274H73.6766V23.0416L74.0919 23.1036C74.8382 23.2133 74.9237 23.5032 74.9237 24.9621V31.4616C74.9237 32.9202 74.8382 33.0934 74.0919 33.2832L73.6766 33.3821V33.7992H78.0469V33.3821L77.6313 33.2832C76.8859 33.0937 76.8004 32.9205 76.8004 31.4616V29.1687ZM78.0999 23.1377C79.7806 23.1377 80.5352 24.3848 80.5352 25.7277C80.5352 26.8643 80.2067 27.4504 79.7511 27.8014C79.2463 28.1659 78.6769 28.237 78.0424 28.237C77.1678 28.237 77.279 28.2358 77.1678 28.2358C76.9221 28.2358 76.8004 28.108 76.8004 27.8076V23.6717C76.8004 23.1628 77.1985 23.1377 78.0999 23.1377ZM103.574 23.8323C103.699 23.6343 103.741 23.4723 103.644 23.3272C103.54 23.1722 103.384 23.1903 102.978 23.1845H100.486C99.8992 23.1845 99.2535 23.2936 98.8382 23.7425C98.4811 24.1327 98.2236 24.5986 98.0884 24.8762L97.6493 24.7624C97.8393 24.1479 97.9911 23.6127 98.2564 22.627L106.352 22.6258L106.526 22.8846C106.206 23.3833 101.513 30.7205 100.582 32.1648C100.461 32.3526 100.224 32.7168 100.397 32.9943C100.518 33.1883 100.805 33.2263 101.114 33.2263H103.419C103.848 33.2263 104.564 33.1631 105.119 32.7706C105.589 32.4392 105.919 31.9536 106.213 31.3011L106.635 31.4122C106.378 32.2499 106.048 33.2731 105.858 33.7984H97.5237L97.3491 33.5275C97.6514 33.0549 103.256 24.3366 103.574 23.8323Z" fill="white"/>
<mask id="mask6" mask-type="alpha" maskUnits="userSpaceOnUse" x="73" y="22" width="61" height="12">
<path fill-rule="evenodd" clip-rule="evenodd" d="M98.6 22.6788C98.3341 23.6557 98.182 24.1862 97.9915 24.7953L98.4316 24.9083C98.5671 24.6329 98.8251 24.1711 99.1831 23.7844C99.5993 23.3395 100.246 23.2313 100.835 23.2313H103.332C103.739 23.2371 103.895 23.2192 103.999 23.3728C104.097 23.5166 104.055 23.6772 103.929 23.8734C103.611 24.3732 97.9937 33.0137 97.6906 33.4821L97.8657 33.7506H106.219C106.408 33.2299 106.739 32.2159 106.997 31.3857L106.574 31.2756C106.28 31.9223 105.948 32.4035 105.478 32.7319C104.921 33.1212 104.204 33.1836 103.774 33.1836H101.464C101.154 33.1836 100.867 33.1459 100.745 32.9537C100.572 32.6786 100.81 32.3177 100.93 32.1316C101.863 30.7002 106.567 23.4285 106.888 22.9342L106.714 22.6777L98.6 22.6788ZM124.283 22.6791V23.0896L124.699 23.151C125.446 23.2598 125.532 23.547 125.532 24.993V31.4344C125.532 32.8801 125.446 33.0517 124.699 33.2398L124.283 33.3378V33.7512H128.665V33.3378L128.249 33.2398C127.502 33.052 127.416 32.8804 127.416 31.4344V29.6673C127.416 29.3687 127.539 29.242 127.785 29.242C127.948 29.242 128.609 29.2452 129.017 29.2226C130.188 29.1551 130.926 28.9333 131.672 28.5591C132.449 28.1695 133.45 27.3523 133.45 25.8322C133.45 24.6825 132.711 23.8102 131.899 23.3299C131.094 22.8545 129.852 22.678 128.424 22.678L124.283 22.6791ZM127.417 28.2764V23.6656C127.417 23.2099 127.816 23.185 128.719 23.185C130.542 23.185 131.389 24.2274 131.389 25.8493C131.389 27.2923 131.043 28.2828 129.052 28.6408C128.758 28.6945 128.466 28.702 128.203 28.702H127.786C127.539 28.702 127.417 28.5753 127.417 28.2764ZM88.4312 22.6788V23.0893L88.8477 23.1508C89.594 23.2595 89.6806 23.5464 89.6806 24.9927V31.4341C89.6806 32.8798 89.594 33.0514 88.8477 33.2395L88.4312 33.3375V33.7509H92.9435V33.3375L92.5264 33.2395C91.7794 33.0517 91.6931 32.8801 91.6931 31.4341V24.9927C91.6931 23.547 91.7794 23.2595 92.5264 23.1508L92.9435 23.0916V22.6788H88.4312ZM73.9664 22.6793V23.0898L74.3823 23.1512C75.1301 23.2599 75.2159 23.5469 75.2159 24.9931V31.4346C75.2159 32.8803 75.1301 33.0519 74.3823 33.24L73.9664 33.338V33.7513H78.3459V33.338L77.9294 33.24C77.1824 33.0522 77.0967 32.8805 77.0967 31.4346V29.1622C77.0967 28.8648 77.2184 28.7378 77.4649 28.7378H78.0185C78.3462 28.7378 78.4588 28.9063 78.7153 29.2724C79.2477 30.0223 79.9533 31.1731 80.4033 31.7842C81.6299 33.4693 82.9542 33.8827 84.4298 33.8827C84.7609 33.8827 85.0289 33.8432 85.1918 33.8027V33.5586C84.7174 33.5264 84.2716 33.3536 83.9813 33.1058C82.8009 32.1437 81.7527 30.6424 80.3656 28.4842C80.2757 28.3624 80.3095 28.3491 80.4444 28.3103C81.3963 28.0337 82.8987 27.2838 82.8987 25.5042C82.8987 24.1021 82.0379 23.4576 81.1295 23.0567C80.3098 22.6958 79.3087 22.6793 78.2445 22.6793H73.9664ZM77.465 28.2376C77.2187 28.2376 77.0967 28.1109 77.0967 27.8132V23.7143C77.0967 23.2099 77.4957 23.185 78.3991 23.185C80.0834 23.185 80.8398 24.421 80.8398 25.7519C80.8398 26.8784 80.5105 27.4593 80.0539 27.8071C79.548 28.1683 78.9773 28.2388 78.3414 28.2388C77.465 28.2388 77.5763 28.2376 77.465 28.2376ZM115.3 22.6791C115.3 22.6791 111.689 31.6968 111.386 32.4606C111.273 32.7447 111.089 33.0662 110.558 33.1914C110.195 33.2775 109.777 33.3375 109.777 33.3375V33.7509H113.294V33.3375L112.897 33.2934C112.302 33.2279 112.039 33.2407 112.358 32.3278C112.472 32.0003 113.181 30.0207 113.261 29.8044C113.342 29.5896 113.602 29.4151 113.84 29.4151H116.539C116.777 29.4151 117.032 29.5902 117.108 29.8062L118.175 32.8096C118.25 33.0253 118.122 33.2218 117.886 33.2482L117.076 33.3378V33.7512H121.398V33.3378C121.398 33.3378 121.366 33.3329 120.883 33.2398C120.401 33.1468 120.276 32.9479 119.773 31.526L116.633 22.6791H115.3ZM113.8 28.3849C114.404 26.7925 114.988 25.2515 115.18 24.7413C115.218 24.6442 115.277 24.6442 115.311 24.7425L116.603 28.3814C116.681 28.5982 116.549 28.7727 116.312 28.7727H114.083C113.845 28.7727 113.718 28.5991 113.8 28.3849Z" fill="white"/>
</mask>
<g mask="url(#mask6)">
<path fill-rule="evenodd" clip-rule="evenodd" d="M73.9659 33.8823H133.45V22.6781H73.9659V33.8823Z" fill="white"/>
</g>
<path fill-rule="evenodd" clip-rule="evenodd" d="M128.642 28.6426C128.348 28.6968 128.057 28.7044 127.795 28.7044H127.378C127.132 28.7044 127.01 28.5765 127.01 28.2753V23.6226C127.01 23.1628 127.408 23.1377 128.309 23.1377C130.128 23.1377 130.973 24.1895 130.973 25.8259C130.973 27.282 130.628 28.2814 128.642 28.6426ZM131.482 23.2839C130.679 22.8042 129.439 22.6261 128.015 22.6261L123.883 22.6273V23.0414L124.298 23.1034C125.043 23.2131 125.129 23.503 125.129 24.9619V31.4614C125.129 32.92 125.043 33.0932 124.298 33.283L123.883 33.3819V33.799H128.256V33.3819L127.84 33.283C127.095 33.0935 127.009 32.9203 127.009 31.4614V29.6784C127.009 29.3771 127.131 29.2493 127.378 29.2493C127.54 29.2493 128.199 29.2525 128.606 29.2297C129.775 29.1615 130.511 28.9378 131.256 28.5602C132.031 28.1668 133.03 27.3425 133.03 25.8087C133.03 24.6487 132.292 23.7686 131.482 23.2839ZM114.801 24.708C114.838 24.6101 114.896 24.6101 114.931 24.7092L116.22 28.3809C116.298 28.5996 116.166 28.7757 115.929 28.7757H113.706C113.468 28.7757 113.341 28.6005 113.423 28.3844C114.025 26.7777 114.609 25.2228 114.801 24.708ZM119.383 31.5538L116.25 22.6273H114.92C114.92 22.6273 111.317 31.7261 111.015 32.4968C110.901 32.7834 110.717 33.1078 110.188 33.2342C109.826 33.321 109.41 33.3816 109.41 33.3816V33.7987H112.918V33.3816L112.523 33.3371C111.929 33.271 111.666 33.2839 111.984 32.3628C112.098 32.0323 112.805 30.0349 112.885 29.8167C112.966 29.6 113.225 29.4239 113.463 29.4239H116.156C116.393 29.4239 116.648 29.6006 116.724 29.8185L117.788 32.849C117.864 33.0666 117.736 33.2649 117.5 33.2915L116.692 33.3819V33.799H121.004V33.3819C121.004 33.3819 120.972 33.3766 120.491 33.283C120.009 33.1891 119.885 32.9885 119.383 31.5538ZM89.3567 31.4611C89.3567 32.9197 89.2703 33.0929 88.5255 33.2827L88.1099 33.3816V33.7987H92.6124V33.3816L92.1962 33.2827C91.4508 33.0932 91.3647 32.92 91.3647 31.4611V24.9616C91.3647 23.503 91.4508 23.2128 92.1962 23.1031L92.6124 23.0435V22.627H88.1099V23.0411L88.5255 23.1031C89.2703 23.2128 89.3567 23.5027 89.3567 24.9616V31.4611ZM76.8004 29.1687C76.8004 28.8686 76.9218 28.7405 77.1678 28.7405H77.7201C78.0472 28.7405 78.1595 28.9105 78.4155 29.2799C78.9467 30.0366 79.6508 31.1977 80.0998 31.8143C81.3236 33.5146 82.645 33.9317 84.1173 33.9317C84.448 33.9317 84.7151 33.8919 84.8777 33.8509V33.6047C84.4046 33.5722 83.9595 33.3979 83.6698 33.1478C82.4921 32.177 81.4462 30.6622 80.0624 28.4846C79.9724 28.3617 80.0061 28.3483 80.1407 28.3091C81.0905 28.0301 82.5896 27.2734 82.5896 25.4778C82.5896 24.063 81.7308 23.4128 80.8243 23.0083C80.0064 22.6441 79.0075 22.6274 77.9457 22.6274H73.6766V23.0416L74.0919 23.1036C74.8382 23.2133 74.9237 23.5032 74.9237 24.9621V31.4616C74.9237 32.9202 74.8382 33.0934 74.0919 33.2832L73.6766 33.3821V33.7992H78.0469V33.3821L77.6313 33.2832C76.8859 33.0937 76.8004 32.9205 76.8004 31.4616V29.1687ZM78.0999 23.1377C79.7806 23.1377 80.5352 24.3848 80.5352 25.7277C80.5352 26.8643 80.2067 27.4504 79.7511 27.8014C79.2463 28.1659 78.6769 28.237 78.0424 28.237C77.1678 28.237 77.279 28.2358 77.1678 28.2358C76.9221 28.2358 76.8004 28.108 76.8004 27.8076V23.6717C76.8004 23.1628 77.1985 23.1377 78.0999 23.1377ZM103.574 23.8323C103.699 23.6343 103.741 23.4723 103.644 23.3272C103.54 23.1722 103.384 23.1903 102.978 23.1845H100.486C99.8992 23.1845 99.2535 23.2936 98.8382 23.7425C98.4811 24.1327 98.2236 24.5986 98.0884 24.8762L97.6493 24.7624C97.8393 24.1479 97.9911 23.6127 98.2564 22.627L106.352 22.6258L106.526 22.8846C106.206 23.3833 101.513 30.7205 100.582 32.1648C100.461 32.3526 100.224 32.7168 100.397 32.9943C100.518 33.1883 100.805 33.2263 101.114 33.2263H103.419C103.848 33.2263 104.564 33.1631 105.119 32.7706C105.589 32.4392 105.919 31.9536 106.213 31.3011L106.635 31.4122C106.378 32.2499 106.048 33.2731 105.858 33.7984H97.5237L97.3491 33.5275C97.6514 33.0549 103.256 24.3366 103.574 23.8323Z" fill="white"/>
<mask id="mask7" mask-type="alpha" maskUnits="userSpaceOnUse" x="73" y="22" width="61" height="12">
<path fill-rule="evenodd" clip-rule="evenodd" d="M98.6 22.6788C98.3341 23.6557 98.182 24.1862 97.9915 24.7953L98.4316 24.9083C98.5671 24.6329 98.8251 24.1711 99.1831 23.7844C99.5993 23.3395 100.246 23.2313 100.835 23.2313H103.332C103.739 23.2371 103.895 23.2192 103.999 23.3728C104.097 23.5166 104.055 23.6772 103.929 23.8734C103.611 24.3732 97.9937 33.0137 97.6906 33.4821L97.8657 33.7506H106.219C106.408 33.2299 106.739 32.2159 106.997 31.3857L106.574 31.2756C106.28 31.9223 105.948 32.4035 105.478 32.7319C104.921 33.1212 104.204 33.1836 103.774 33.1836H101.464C101.154 33.1836 100.867 33.1459 100.745 32.9537C100.572 32.6786 100.81 32.3177 100.93 32.1316C101.863 30.7002 106.567 23.4285 106.888 22.9342L106.714 22.6777L98.6 22.6788ZM124.283 22.6791V23.0896L124.699 23.151C125.446 23.2598 125.532 23.547 125.532 24.993V31.4344C125.532 32.8801 125.446 33.0517 124.699 33.2398L124.283 33.3378V33.7512H128.665V33.3378L128.249 33.2398C127.502 33.052 127.416 32.8804 127.416 31.4344V29.6673C127.416 29.3687 127.539 29.242 127.785 29.242C127.948 29.242 128.609 29.2452 129.017 29.2226C130.188 29.1551 130.926 28.9333 131.672 28.5591C132.449 28.1695 133.45 27.3523 133.45 25.8322C133.45 24.6825 132.711 23.8102 131.899 23.3299C131.094 22.8545 129.852 22.678 128.424 22.678L124.283 22.6791ZM127.417 28.2764V23.6656C127.417 23.2099 127.816 23.185 128.719 23.185C130.542 23.185 131.389 24.2274 131.389 25.8493C131.389 27.2923 131.043 28.2828 129.052 28.6408C128.758 28.6945 128.466 28.702 128.203 28.702H127.786C127.539 28.702 127.417 28.5753 127.417 28.2764ZM88.4312 22.6788V23.0893L88.8477 23.1508C89.594 23.2595 89.6806 23.5464 89.6806 24.9927V31.4341C89.6806 32.8798 89.594 33.0514 88.8477 33.2395L88.4312 33.3375V33.7509H92.9435V33.3375L92.5264 33.2395C91.7794 33.0517 91.6931 32.8801 91.6931 31.4341V24.9927C91.6931 23.547 91.7794 23.2595 92.5264 23.1508L92.9435 23.0916V22.6788H88.4312ZM73.9664 22.6793V23.0898L74.3823 23.1512C75.1301 23.2599 75.2159 23.5469 75.2159 24.9931V31.4346C75.2159 32.8803 75.1301 33.0519 74.3823 33.24L73.9664 33.338V33.7513H78.3459V33.338L77.9294 33.24C77.1824 33.0522 77.0967 32.8805 77.0967 31.4346V29.1622C77.0967 28.8648 77.2184 28.7378 77.4649 28.7378H78.0185C78.3462 28.7378 78.4588 28.9063 78.7153 29.2724C79.2477 30.0223 79.9533 31.1731 80.4033 31.7842C81.6299 33.4693 82.9542 33.8827 84.4298 33.8827C84.7609 33.8827 85.0289 33.8432 85.1918 33.8027V33.5586C84.7174 33.5264 84.2716 33.3536 83.9813 33.1058C82.8009 32.1437 81.7527 30.6424 80.3656 28.4842C80.2757 28.3624 80.3095 28.3491 80.4444 28.3103C81.3963 28.0337 82.8987 27.2838 82.8987 25.5042C82.8987 24.1021 82.0379 23.4576 81.1295 23.0567C80.3098 22.6958 79.3087 22.6793 78.2445 22.6793H73.9664ZM77.465 28.2376C77.2187 28.2376 77.0967 28.1109 77.0967 27.8132V23.7143C77.0967 23.2099 77.4957 23.185 78.3991 23.185C80.0834 23.185 80.8398 24.421 80.8398 25.7519C80.8398 26.8784 80.5105 27.4593 80.0539 27.8071C79.548 28.1683 78.9773 28.2388 78.3414 28.2388C77.465 28.2388 77.5763 28.2376 77.465 28.2376ZM115.3 22.6791C115.3 22.6791 111.689 31.6968 111.386 32.4606C111.273 32.7447 111.089 33.0662 110.558 33.1914C110.195 33.2775 109.777 33.3375 109.777 33.3375V33.7509H113.294V33.3375L112.897 33.2934C112.302 33.2279 112.039 33.2407 112.358 32.3278C112.472 32.0003 113.181 30.0207 113.261 29.8044C113.342 29.5896 113.602 29.4151 113.84 29.4151H116.539C116.777 29.4151 117.032 29.5902 117.108 29.8062L118.175 32.8096C118.25 33.0253 118.122 33.2218 117.886 33.2482L117.076 33.3378V33.7512H121.398V33.3378C121.398 33.3378 121.366 33.3329 120.883 33.2398C120.401 33.1468 120.276 32.9479 119.773 31.526L116.633 22.6791H115.3ZM113.8 28.3849C114.404 26.7925 114.988 25.2515 115.18 24.7413C115.218 24.6442 115.277 24.6442 115.311 24.7425L116.603 28.3814C116.681 28.5982 116.549 28.7727 116.312 28.7727H114.083C113.845 28.7727 113.718 28.5991 113.8 28.3849Z" fill="white"/>
</mask>
<g mask="url(#mask7)">
<path fill-rule="evenodd" clip-rule="evenodd" d="M73.9659 33.8823H133.45V22.6781H73.9659V33.8823Z" fill="white"/>
</g>
</svg>
