<svg width="206" height="60" viewBox="0 0 206 60" fill="none" xmlns="http://www.w3.org/2000/svg">
<path fill-rule="evenodd" clip-rule="evenodd" d="M17.0366 39.5156C16.4771 41.9419 15.9736 44.1181 15.4737 46.295C15.0151 48.2919 14.5456 50.2864 14.1126 52.2889C13.9682 52.9567 13.6494 53.2485 12.9443 53.2244C11.7145 53.1826 10.482 53.2265 9.25081 53.2086C8.33541 53.1955 8.12211 52.9318 8.30791 52.0304C9.25685 47.4287 10.2144 42.8287 11.1745 38.2294C12.2762 32.9518 13.3864 27.6759 14.4864 22.3979C14.713 21.3107 14.4761 21.0876 13.3852 21.3372C11.6045 21.7444 9.82751 22.1672 8.04609 22.571C7.14837 22.7745 6.87016 22.5003 7.05337 21.6004C7.44987 19.6538 7.88509 17.7146 8.24677 15.7617C8.3877 15.0005 8.76814 14.849 9.44545 14.986C11.3928 15.3797 11.6475 14.8275 11.0845 17.3897C10.8399 18.5033 11.0496 18.7053 12.1606 18.4506C16.0292 17.5642 19.8701 16.5196 23.7752 15.8467C25.8798 15.4841 28.142 15.4592 30.2474 15.8052C34.2401 16.4614 36.7541 19.6666 37.095 23.7785C37.3639 27.0227 36.148 29.5448 33.3601 31.0667C31.4218 32.1249 29.2605 32.8031 27.15 33.5037C26.0215 33.8782 25.2039 33.3119 24.7548 32.2112C24.5379 31.68 24.7276 31.3694 25.2626 31.2195C26.2027 30.9563 27.1434 30.6946 28.0775 30.411C30.5107 29.6721 31.5799 28.2332 31.6104 25.6807C31.6519 22.21 30.0181 19.8589 27.0349 19.003C25.3429 18.5176 23.7192 18.8552 22.108 19.317C21.8574 19.3889 21.6004 19.7935 21.5301 20.088C20.6304 23.8601 19.7517 27.6372 18.9107 31.4227C18.8329 31.7725 18.9509 32.2499 19.1458 32.5637C21.1599 35.8071 23.2031 39.0323 25.2503 42.2551C25.9882 43.4165 26.5629 43.6037 27.8849 43.1724C30.5498 42.3029 33.2128 41.4272 35.8787 40.5605C36.917 40.2229 37.2109 40.5064 37.0528 41.5705C36.8778 42.7487 36.3074 43.4615 35.1292 43.8599C32.4454 44.7675 29.7949 45.7774 27.1488 46.792C25.8714 47.2819 24.8576 47.0343 23.8949 46.0696C21.9772 44.1483 20.0047 42.2819 18.0505 40.3974C17.7877 40.1438 17.4996 39.9166 17.0366 39.5156Z" fill="#7DCD17"/>
<path fill-rule="evenodd" clip-rule="evenodd" d="M184.878 42.919H194.795V32.6119H184.878V42.919ZM186.897 30.708V27.4845C186.897 24.4244 186.893 21.3644 186.899 18.3042C186.901 17.0376 187.111 16.8427 188.4 16.8391C190.444 16.8336 190.458 16.847 190.458 18.8814C190.458 20.0731 190.458 21.2646 190.458 22.5677C192.563 22.5677 194.578 22.5677 196.593 22.5678C197.068 22.5678 197.543 22.5657 198.018 22.5697C198.678 22.5755 199.027 22.9112 198.998 23.569C198.972 24.1942 198.592 24.4281 197.986 24.425C195.802 24.4139 193.617 24.4205 191.432 24.4204H190.458V27.5699V30.7074C192.326 30.7074 194.117 30.7173 195.908 30.7051C198.612 30.6866 198.268 30.6786 198.272 33.0525C198.278 37.2798 198.275 41.5072 198.273 45.7345C198.272 46.7903 198.073 46.9897 197.009 47.028C196.788 47.0358 196.566 47.0309 196.344 47.0284C195.03 47.014 194.866 46.854 194.851 45.5725C194.848 45.3575 194.85 45.1426 194.85 44.8819H184.927C184.892 44.9715 184.845 45.0524 184.828 45.1391C184.718 45.7043 184.745 46.6763 184.483 46.7605C183.711 47.0087 182.819 46.9736 181.988 46.8941C181.761 46.8724 181.417 46.3051 181.414 45.9859C181.377 41.2227 181.389 36.459 181.388 31.6953C181.388 30.9603 181.803 30.7026 182.482 30.706C183.905 30.713 185.329 30.708 186.897 30.708Z" fill="white"/>
<path fill-rule="evenodd" clip-rule="evenodd" d="M133.862 26.4408H139.753V20.0767H133.862V26.4408ZM134 43.8873C135.714 43.5669 135.714 43.5669 135.714 41.9556V29.4451V28.3378C134.364 28.3378 133.11 28.3408 131.857 28.337C130.595 28.3333 130.411 28.1567 130.41 26.9405C130.408 24.4447 130.434 21.9486 130.396 19.4534C130.383 18.5487 130.766 18.1917 131.627 18.1935C135.035 18.2011 138.443 18.1985 141.851 18.1942C142.73 18.1931 143.075 18.6177 143.064 19.4923C143.035 21.9877 143.058 24.4836 143.052 26.9793C143.049 28.1068 142.811 28.3297 141.638 28.3367C140.795 28.3419 139.953 28.3378 139.026 28.3378C139.026 29.3908 139.023 30.3316 139.029 31.2723C139.03 31.5188 139.061 31.7651 139.086 32.1201C139.967 32.1201 140.811 32.1339 141.654 32.1155C142.284 32.1019 142.716 32.287 142.698 33.0069C142.68 33.7016 142.266 33.9154 141.631 33.8999C140.816 33.8803 140 33.8952 139.106 33.8952V42.1282C139.925 41.8227 140.699 41.5421 141.467 41.2446C142.057 41.016 142.626 40.7941 142.938 41.6294C143.231 42.4169 142.834 42.8317 142.155 43.0697C138.502 44.3499 134.849 45.629 131.188 46.8871C130.607 47.0868 129.971 47.2109 129.759 46.3484C129.56 45.5421 129.984 45.1521 130.711 45.0284C131.584 44.8801 131.825 44.4557 131.765 43.5347C131.523 39.7886 131.392 36.0354 131.219 32.2848C131.169 31.2037 131.414 30.9339 132.496 30.9009C132.748 30.8932 133.001 30.9032 133.253 30.8991C134.078 30.8857 134.452 31.2472 134.406 32.1118C134.251 35.0421 134.122 37.9739 134.006 40.906C133.968 41.8773 134 42.8515 134 43.8873Z" fill="#FEFEFE"/>
<path fill-rule="evenodd" clip-rule="evenodd" d="M115.163 32.5647C115.163 36.9306 115.179 41.2964 115.139 45.6619C115.135 46.1209 114.862 46.9258 114.609 46.9693C113.838 47.1025 113.003 47.0066 112.224 46.8457C112.058 46.8113 111.945 46.128 111.944 45.7429C111.925 41.2803 111.931 36.8176 111.797 32.2894C111.527 32.8264 111.303 33.393 110.979 33.8953C109.064 36.8671 107.128 39.8261 105.19 42.7838C104.881 43.2559 104.498 43.6936 103.88 43.2463C103.242 42.7842 103.264 42.2332 103.713 41.607C105.856 38.6206 107.774 35.4936 109.155 32.0815C109.957 30.0976 110.554 28.0301 111.231 25.9959C111.329 25.7025 111.357 25.3858 111.435 24.9887C109.934 24.9887 108.515 24.9866 107.096 24.9897C106.464 24.991 105.849 24.9819 105.823 24.1087C105.796 23.2074 106.378 23.1044 107.083 23.11C108.661 23.1223 110.239 23.1139 111.931 23.1139C111.931 21.4184 111.928 19.7834 111.933 18.1486C111.936 17.0159 112.108 16.852 113.266 16.8454C113.519 16.844 113.773 16.8575 114.025 16.8427C114.825 16.7961 115.182 17.1511 115.17 17.9653C115.146 19.638 115.163 21.3114 115.163 23.1137C116.818 23.1137 118.418 23.1137 120.019 23.1138C120.335 23.1138 120.652 23.1097 120.968 23.1152C121.616 23.1261 121.984 23.4451 121.967 24.1072C121.951 24.7351 121.571 24.9912 120.97 24.9893C119.577 24.985 118.184 24.9885 116.792 24.9888H115.637C115.758 25.632 115.833 26.2123 115.977 26.7752C117.143 31.3425 118.94 35.6354 121.584 39.5556C121.707 39.7388 121.946 39.9472 121.92 40.1092C121.841 40.5915 121.657 41.0564 121.514 41.5281C121.121 41.3816 120.544 41.3519 120.366 41.0702C118.835 38.6406 117.372 36.1679 115.9 33.7018C115.677 33.3298 115.512 32.9245 115.32 32.5347C115.268 32.5446 115.215 32.5547 115.163 32.5647Z" fill="#FEFEFE"/>
<path fill-rule="evenodd" clip-rule="evenodd" d="M99.9561 23.1119C101.173 23.1119 102.275 23.114 103.378 23.1111C104.003 23.1094 104.529 23.2201 104.548 24.0117C104.568 24.8441 104.06 25.0038 103.368 24.9938C102.264 24.9778 101.158 24.9896 99.888 24.9896C100.667 26.8975 101.376 28.7123 102.148 30.5002C102.711 31.8043 103.357 33.073 103.966 34.3575C104.06 34.5571 104.172 34.751 104.245 34.9585C104.465 35.589 104.179 36.0856 103.619 36.2298C103.335 36.3031 102.773 36.0198 102.615 35.7404C101.933 34.5311 101.356 33.263 100.737 32.0182C100.555 31.6517 100.361 31.2909 99.9562 30.9319V31.8652C99.9564 36.4568 99.9717 41.0486 99.9331 45.6399C99.9292 46.1069 99.6626 46.9273 99.4117 46.9708C98.6423 47.1039 97.8075 47.0028 97.0311 46.8381C96.8652 46.8029 96.7603 46.116 96.7586 45.7287C96.7394 41.583 96.7467 37.4372 96.7467 33.0015C96.4941 33.4948 96.3672 33.7533 96.2311 34.0068C95.1856 35.9538 94.1472 37.9045 93.0864 39.8428C92.7851 40.3934 92.387 40.9273 91.6706 40.432C91.016 39.9791 91.1149 39.3872 91.4901 38.7656C93.7343 35.0492 95.2254 31.0425 96.0671 26.79C96.1772 26.2336 96.2618 25.6723 96.3795 24.9897C95.1078 24.9897 93.8868 24.9785 92.6661 24.9939C91.9622 25.0029 91.3715 24.908 91.3952 24.005C91.4179 23.1412 92.0259 23.1096 92.664 23.1113C93.9888 23.1147 95.3136 23.1124 96.7467 23.1124C96.7467 21.4398 96.7443 19.8352 96.7475 18.2305C96.7498 17.0211 96.9204 16.8491 98.1007 16.8399C99.8854 16.826 99.9557 16.8964 99.9561 18.7019C99.9564 20.1242 99.9561 21.5463 99.9561 23.1119Z" fill="#FEFEFE"/>
<path fill-rule="evenodd" clip-rule="evenodd" d="M69.9422 23.7863C69.9422 25.844 69.9468 27.7123 69.9406 29.5807C69.9367 30.7754 69.7522 30.9546 68.5705 30.9647C66.3914 30.9834 66.3915 30.9834 66.3918 28.7919C66.3921 27.182 66.3918 25.572 66.3918 23.7689C65.918 24.1218 65.5777 24.3756 65.2371 24.6288C62.208 26.8807 58.9031 28.646 55.495 30.23C54.9059 30.5039 54.3244 30.6775 53.9695 29.9241C53.6056 29.1515 54.0493 28.756 54.7075 28.4672C58.3654 26.862 61.7491 24.7968 64.8711 22.296C65.0339 22.1656 65.1911 22.0282 65.5023 21.7669C65.0147 21.7408 64.7193 21.7114 64.424 21.7111C61.5225 21.7075 58.6207 21.7316 55.7201 21.6835C55.292 21.6764 54.6633 21.448 54.486 21.1234C54.0865 20.3924 54.5665 19.8464 55.5058 19.844C58.7542 19.8357 62.0025 19.8407 65.2508 19.8406H66.2119C66.3923 18.845 66.3917 17.8512 66.8002 17.076C66.9678 16.7578 68.0196 16.8459 68.6665 16.862C70.945 16.9188 69.4227 18.857 70.1633 19.8405H72.288C75.1263 19.8406 77.9648 19.8475 80.8032 19.8357C81.4513 19.8331 81.924 19.9595 81.9299 20.7536C81.9359 21.5508 81.4299 21.7031 80.8083 21.7046C77.8438 21.7118 74.8793 21.7074 71.9147 21.7111C71.6183 21.7115 71.3217 21.7383 71.0253 21.753C70.984 21.8429 70.9429 21.9329 70.9016 22.0228C72.9029 23.3677 74.8641 24.7785 76.9186 26.0352C78.4194 26.9532 80.0345 27.6851 81.6154 28.4657C82.2589 28.7835 82.72 29.1697 82.3548 29.9274C82.005 30.6531 81.4183 30.5075 80.8192 30.228C77.2691 28.5723 73.8259 26.7325 70.7029 24.3346C70.5078 24.1848 70.304 24.0464 69.9422 23.7863Z" fill="#FEFEFE"/>
<path fill-rule="evenodd" clip-rule="evenodd" d="M76.577 38.7027C76.577 41.2257 76.5389 43.508 76.5953 45.788C76.6186 46.729 76.2163 47.0481 75.3765 47.0317C75.2507 47.0293 75.1249 47.0309 74.9992 47.0315C73.282 47.039 73.17 46.9292 73.1698 45.2331C73.1696 43.2171 73.1698 41.2011 73.1698 38.9722C72.3045 39.9353 71.6098 40.7694 70.8508 41.5388C69.7886 42.6155 68.6837 43.6499 67.586 44.6904C67.0796 45.1705 66.5237 45.5973 65.9082 44.8614C65.336 44.1773 65.8035 43.7119 66.3039 43.269C68.6852 41.1605 70.6794 38.7328 72.2305 35.9422C72.4247 35.5926 72.5988 35.2317 72.8536 34.7379C71.3496 34.7379 69.9819 34.7221 68.6147 34.7447C67.9563 34.7556 67.4819 34.5952 67.4851 33.8273C67.4882 33.0711 67.993 32.8677 68.6202 32.8628C70.0934 32.8513 71.5669 32.8591 73.1698 32.8591C73.1698 32.0544 73.1804 31.3069 73.1668 30.5598C73.1538 29.8491 73.5019 29.54 74.1866 29.4811C76.421 29.2888 76.5757 29.4234 76.5773 31.705C76.5775 32.0474 76.5773 32.3896 76.5773 32.8575C78.3679 32.8575 80.0848 32.8546 81.8015 32.8602C82.114 32.8611 82.5153 32.783 82.718 32.9435C83.0099 33.1746 83.3451 33.6112 83.3121 33.9225C83.2807 34.219 82.8134 34.6818 82.5157 34.6997C81.1372 34.7834 79.7511 34.7374 78.3678 34.7378C78.0338 34.7379 77.6996 34.7379 77.2543 34.7379C78.441 37.5023 80.1039 39.7691 82.131 41.7812C82.4892 42.1367 82.865 42.474 83.2343 42.8179C83.7393 43.2883 83.7869 43.8098 83.3319 44.3196C82.8805 44.8253 82.4203 44.6076 82.0247 44.2178C80.4531 42.6695 78.8894 41.1132 77.3275 39.5549C77.1124 39.3404 76.9239 39.0986 76.577 38.7027Z" fill="#FEFEFE"/>
<path fill-rule="evenodd" clip-rule="evenodd" d="M148.202 35.2337C148.202 37.9521 148.187 40.5578 148.212 43.1628C148.219 43.8545 148.544 44.4397 149.329 44.4257C151.471 44.3869 153.619 44.3628 155.752 44.1866C157.374 44.0526 158.109 42.871 158.39 41.394C158.513 40.748 158.46 40.0611 158.64 39.4364C158.747 39.0634 159.125 38.5335 159.428 38.5002C160.02 38.4352 160.58 38.8087 160.47 39.5296C160.249 40.9804 160.097 42.4708 159.617 43.8408C159.373 44.5387 158.575 45.2525 157.859 45.532C156.648 46.0047 155.313 46.3068 154.014 46.3771C151.847 46.4944 149.659 46.4712 147.493 46.3219C145.465 46.1821 144.773 45.4964 144.692 43.4901C144.569 40.443 144.628 37.3884 144.621 34.337C144.619 33.51 145.219 33.3916 145.862 33.3873C147.28 33.3777 148.699 33.3843 150.174 33.3843V27.6113C149.587 27.6113 149.027 27.6304 148.469 27.6061C147.87 27.5802 147.535 27.2641 147.55 26.6429C147.566 26.0236 147.887 25.7406 148.511 25.7457C149.902 25.7572 151.293 25.765 152.683 25.7422C153.362 25.7312 153.682 26.023 153.682 26.6894C153.68 29.2385 153.677 31.7874 153.681 34.3365C153.682 35.046 153.283 35.2458 152.644 35.2388C151.194 35.2227 149.744 35.2337 148.202 35.2337Z" fill="#FEFEFE"/>
<path fill-rule="evenodd" clip-rule="evenodd" d="M148.968 20.3447C152.137 20.3447 155.209 20.3442 158.282 20.3449C159.823 20.3452 159.984 20.4251 159.877 21.9203C159.554 26.4284 159.228 30.9386 158.758 35.4327C158.551 37.4085 157.686 37.9737 155.674 37.9335C154.639 37.9129 153.606 37.8162 152.571 37.7658C151.94 37.7352 151.571 37.4763 151.58 36.7873C151.589 36.0775 151.991 35.8593 152.619 35.8859C152.933 35.8994 153.247 35.9064 153.56 35.935C155.197 36.0852 155.651 35.7366 155.762 34.0595C155.999 30.4864 156.194 26.9106 156.405 23.3359C156.425 22.9983 156.438 22.6604 156.461 22.195C155.196 22.195 153.98 22.195 152.764 22.1951C151.569 22.1951 150.372 22.2437 149.181 22.1769C148.475 22.1372 148.232 22.4364 147.995 23.0446C147.05 25.4687 146.042 27.8685 145.043 30.2714C144.839 30.7608 144.631 31.345 143.899 31.0471C143.191 30.7586 143.143 30.2203 143.402 29.5701C144.896 25.816 145.803 21.9119 146.359 17.9184C146.497 16.9225 146.806 16.7202 147.838 16.8952C150.038 17.2679 150.045 17.2809 149.285 19.3847C149.182 19.6715 149.094 19.9639 148.968 20.3447Z" fill="#FEFEFE"/>
<path fill-rule="evenodd" clip-rule="evenodd" d="M61.9315 38.3563C61.9315 40.8059 61.9349 43.2555 61.9299 45.7051C61.9277 46.76 61.7243 46.9619 60.6711 47.0086C58.6027 47.1001 58.516 47.0198 58.516 45.0114C58.516 43.0638 58.516 41.1163 58.516 39.1687C58.435 39.0914 58.354 39.0139 58.273 38.9366C58.1957 39.126 58.1599 39.3498 58.0345 39.499C56.9237 40.8215 55.8024 42.1354 54.6718 43.4411C54.2902 43.8815 53.85 44.3456 53.2523 43.786C52.6276 43.201 52.8396 42.6542 53.3905 42.0925C55.2384 40.2095 56.6458 38.0293 57.6571 35.5964C57.7505 35.3716 57.8174 35.1358 57.9235 34.827C56.6563 34.827 55.4646 34.8141 54.2734 34.8323C53.6557 34.8418 53.2239 34.7058 53.2119 33.971C53.1995 33.2182 53.6338 32.9734 54.2859 32.9686C55.664 32.9583 57.0423 32.9655 58.5165 32.9655C58.5165 32.1192 58.5345 31.3725 58.5112 30.6272C58.4898 29.9457 58.8324 29.6528 59.4739 29.6245C59.5055 29.623 59.5369 29.622 59.5685 29.6215C62.1327 29.5747 61.96 29.6455 61.9324 31.7913C61.928 32.1344 61.9318 32.4779 61.9318 32.9649C62.9962 32.9649 64.0224 32.9575 65.0485 32.9676C65.6795 32.9738 66.176 33.1481 66.1532 33.9271C66.1348 34.552 65.8249 34.8342 65.2048 34.8292C64.1416 34.8206 63.0783 34.8267 61.7656 34.8267C62.7097 35.9977 63.5143 37.015 64.3411 38.0142C64.842 38.6194 65.377 39.1966 65.8963 39.7866C66.3508 40.3029 66.3397 40.8187 65.8347 41.277C65.2963 41.7657 64.8669 41.4891 64.478 41.0273C63.6968 40.0992 62.9072 39.1781 62.1209 38.2542L61.9315 38.3563Z" fill="#FEFEFE"/>
<path fill-rule="evenodd" clip-rule="evenodd" d="M176.908 41.3986C177.577 41.1482 178.108 40.961 178.63 40.7505C179.151 40.5403 179.642 40.4773 179.901 41.0969C180.17 41.7367 180.046 42.28 179.336 42.5572C177.988 43.0828 176.651 43.6433 175.281 44.1057C173.343 44.76 171.379 45.3364 169.427 45.9511C168.865 46.128 168.335 46.1791 168.113 45.4863C167.897 44.8109 168.104 44.3523 168.847 44.1249C170.591 43.5908 172.308 42.962 174.062 42.4641C174.878 42.2328 175.124 41.7785 175.18 41.0023C175.424 37.5809 175.705 34.162 175.983 30.7431C176.081 29.552 176.22 28.3644 176.319 27.1733C176.372 26.5381 176.711 26.3112 177.319 26.323C179.725 26.3698 179.828 26.5234 179.331 29.0137C178.519 33.0779 177.737 37.1478 176.908 41.3986Z" fill="#FEFEFE"/>
<path fill-rule="evenodd" clip-rule="evenodd" d="M24.0323 8.9083C23.6647 10.4299 23.3611 11.7975 22.9828 13.1449C22.9199 13.3687 22.5554 13.5985 22.2893 13.6642C20.6062 14.0793 18.9137 14.4594 17.2196 14.8299C16.2384 15.0443 15.963 14.8103 16.1531 13.8381C16.6192 11.4544 17.1443 9.08195 17.6219 6.70025C17.7698 5.96228 18.1629 5.86141 18.7806 6.14864C20.3215 6.86527 21.8691 7.56855 23.3975 8.31036C23.664 8.43973 23.8495 8.7309 24.0323 8.9083Z" fill="#7DCD17"/>
<path fill-rule="evenodd" clip-rule="evenodd" d="M172.556 22.5125C172.556 21.1546 172.543 19.9273 172.56 18.7004C172.575 17.6701 172.824 17.4437 173.865 17.4267C175.967 17.3925 175.967 17.3925 175.967 19.4608C175.967 20.4338 175.967 21.4066 175.967 22.5126C177.081 22.5126 178.138 22.5393 179.193 22.5032C179.904 22.4788 180.4 22.7089 180.419 23.4609C180.439 24.2799 179.841 24.3873 179.183 24.3862C175.879 24.3804 172.575 24.3805 169.271 24.3871C168.607 24.3885 168.042 24.2603 168.032 23.4502C168.023 22.6365 168.57 22.4947 169.248 22.5072C170.312 22.527 171.376 22.5125 172.556 22.5125Z" fill="#FEFEFE"/>
<path fill-rule="evenodd" clip-rule="evenodd" d="M172.871 38.7567C172.721 38.8791 172.399 39.3071 171.984 39.4404C171.378 39.6347 171.07 39.1464 170.98 38.6003C170.392 35.0582 169.8 31.5167 169.255 27.9678C169.07 26.7632 169.256 26.5995 170.438 26.4654C170.748 26.4302 171.053 26.3427 171.364 26.3257C171.985 26.2913 172.384 26.5381 172.411 27.2319C172.556 30.9476 172.707 34.6629 172.871 38.7567Z" fill="#FEFEFE"/>
<path fill-rule="evenodd" clip-rule="evenodd" d="M165.597 32.8898C164.942 32.8898 164.26 32.9256 163.584 32.8801C162.849 32.8306 162.986 32.1843 163.063 31.7468C163.111 31.4679 163.429 31.2075 163.679 31.0148C163.803 30.92 164.046 30.9976 164.235 30.9975C165.833 30.996 165.833 30.996 165.597 32.8898Z" fill="#FEFEFE"/>
<path fill-rule="evenodd" clip-rule="evenodd" d="M88.2814 32.9032C87.9151 32.6548 87.3168 32.4745 87.2267 32.1455C86.97 31.2083 87.1934 30.9863 88.2087 31.04C88.6828 31.065 89.3876 30.6615 89.5764 31.529C89.7844 32.4849 89.5666 32.6842 88.2814 32.9032Z" fill="#FEFEFE"/>
<path fill-rule="evenodd" clip-rule="evenodd" d="M124.97 32.6954C124.401 32.6515 123.686 32.977 123.71 31.8316C123.735 30.6958 124.461 31.0145 125.023 30.9939C125.587 30.9733 126.205 30.7921 126.225 31.8369C126.247 32.9937 125.534 32.6497 124.97 32.6954Z" fill="#5B5B5B"/>
</svg>
